<svg width="382" height="303" viewBox="0 0 382 303" fill="none" xmlns="http://www.w3.org/2000/svg">
<path d="M71.3437 129.51H61.6409V237.068H71.3437V129.51Z" fill="#006838"/>
<path d="M37.9937 232.201V241.934H94.9649V232.201H37.9937Z" fill="#006838"/>
<path d="M185.74 235.662L177.75 241.166L71.4085 85.8929L83.0181 85.6587L185.74 235.662Z" fill="#006838"/>
<path d="M150.613 241.934L138.965 242.09L0 39.1665H11.7652L150.613 241.934Z" fill="#006838"/>
<path d="M381.987 140.635C381.987 143.836 381.84 146.989 381.546 150.095C376.734 201.076 333.395 240.308 280.601 241.583C255.397 242.194 220.102 227.27 201.319 204.55H212.436C223.474 215.689 254.515 233.867 280.368 233.867C328.116 233.867 367.55 196.132 372.336 150.134H275.555V140.674L381.987 140.635Z" fill="#F7941D"/>
<path d="M323.368 48.8475V59.023C309.832 51.7813 294.723 48.0045 279.382 48.0277C228.417 48.0277 187.089 88.8988 187.089 139.295C187.125 157.748 192.842 175.74 203.459 190.81H193.523C191.992 189.756 188.179 183.666 187.037 181.038V242.09H177.853V139.295C177.832 124.874 180.967 110.624 187.037 97.5518C198.686 72.9656 219.589 54.0247 245.153 44.8919C270.717 35.7592 298.85 37.182 323.368 48.8475Z" fill="#F7941D"/>
<path d="M77.3106 1.49639V12.2704C76.8047 12.2704 76.2729 12.2704 75.754 12.2704C75.2351 12.2704 74.7811 12.2704 74.2882 12.2704V1.49639C74.2916 1.09833 74.4517 0.717743 74.7335 0.437483C75.0153 0.157223 75.3961 -1.47757e-05 75.7929 1.62743e-08C76.191 -5.83269e-05 76.5731 0.156755 76.857 0.436659C77.1409 0.716563 77.3038 1.09715 77.3106 1.49639Z" fill="#F7941D"/>
<path d="M75.741 65.9974C76.2599 65.9974 76.7917 65.9974 77.2976 65.9974V76.4852C77.2908 76.8844 77.1279 77.265 76.844 77.5449C76.5602 77.8248 76.178 77.9816 75.78 77.9816C75.3831 77.9816 75.0023 77.8244 74.7205 77.5441C74.4387 77.2638 74.2787 76.8832 74.2753 76.4852V65.9974C74.7163 65.9714 75.2481 65.9974 75.741 65.9974Z" fill="#F7941D"/>
<path d="M58.2164 59.7906L50.6281 67.4027C50.3477 67.6839 49.9674 67.8419 49.5709 67.8419C49.1744 67.8419 48.7941 67.6839 48.5137 67.4027C48.2333 67.1214 48.0758 66.74 48.0758 66.3422C48.0758 65.9444 48.2333 65.563 48.5137 65.2817L56.0502 57.7217C56.7172 58.4671 57.4415 59.1589 58.2164 59.7906Z" fill="#F7941D"/>
<path d="M105.407 11.841C105.408 12.0393 105.369 12.2357 105.293 12.4189C105.218 12.6021 105.106 12.7683 104.966 12.908L97.5074 20.39C96.8527 19.6225 96.16 18.8886 95.4319 18.1909L102.839 10.722C103.124 10.4453 103.505 10.2906 103.902 10.2906C104.299 10.2906 104.681 10.4453 104.966 10.722C105.25 11.0247 105.408 11.4252 105.407 11.841Z" fill="#F7941D"/>
<path d="M52.3403 10.8521L58.8261 17.9697C58.0245 18.58 57.266 19.2452 56.5561 19.9606L50.0703 12.882C49.8689 12.6684 49.7348 12.4 49.6846 12.1103C49.6343 11.8207 49.6703 11.5227 49.7879 11.2534C49.9055 10.9841 50.0996 10.7555 50.3459 10.5962C50.5922 10.4369 50.8798 10.354 51.1729 10.3576C51.3914 10.3516 51.6086 10.3927 51.81 10.478C52.0114 10.5633 52.1922 10.6908 52.3403 10.8521Z" fill="#F7941D"/>
<path d="M103.111 68.5738C102.814 68.8377 102.426 68.9734 102.03 68.9515C101.634 68.9296 101.263 68.7517 100.997 68.4567L93.2137 59.8427C93.9941 59.2032 94.7268 58.5074 95.4059 57.7607L103.189 66.4268C103.462 66.7223 103.607 67.114 103.592 67.5164C103.577 67.9188 103.404 68.299 103.111 68.5738Z" fill="#F7941D"/>
<path d="M49.0196 37.4619C48.9613 38.0064 48.9353 38.5539 48.9418 39.1014C48.9418 39.5699 48.9418 40.0383 48.9418 40.4807H38.5256C38.328 40.4807 38.1323 40.4417 37.9498 40.3658C37.7672 40.29 37.6013 40.1788 37.4616 40.0386C37.3219 39.8985 37.2111 39.7321 37.1354 39.5489C37.0598 39.3658 37.0209 39.1695 37.0209 38.9713C37.0209 38.7731 37.0598 38.5768 37.1354 38.3937C37.2111 38.2106 37.3219 38.0442 37.4616 37.904C37.6013 37.7638 37.7672 37.6527 37.9498 37.5768C38.1323 37.5009 38.328 37.4619 38.5256 37.4619H49.0196Z" fill="#F7941D"/>
<path d="M113.631 38.9582C113.631 39.1564 113.592 39.3527 113.517 39.5358C113.441 39.7189 113.33 39.8853 113.19 40.0255C113.051 40.1657 112.885 40.2768 112.702 40.3527C112.52 40.4286 112.324 40.4676 112.126 40.4676H101.386C101.386 40.0122 101.451 39.5698 101.451 39.1664C101.451 38.763 101.451 38.0734 101.373 37.5269H112.126C112.512 37.5263 112.884 37.6746 113.164 37.941C113.444 38.2074 113.611 38.5716 113.631 38.9582Z" fill="#F7941D"/>
<path d="M99.3623 37.3579C99.0536 32.4759 97.2405 27.8107 94.1737 24.0074C93.4813 23.1832 92.7406 22.4011 91.9555 21.6653C87.9858 17.9479 82.8588 15.7187 77.4403 15.3544C76.9085 15.3544 76.3507 15.3544 75.7929 15.3544C75.2352 15.3544 74.7552 15.3544 74.2363 15.3544C69.5483 15.6388 65.0548 17.3348 61.3426 20.2209C60.4876 20.8675 59.6811 21.5765 58.9299 22.3419C54.935 26.3612 52.5252 31.695 52.1457 37.3579C52.0872 37.9371 52.0612 38.5193 52.0679 39.1015C52.0679 39.5959 52.0679 40.0904 52.0679 40.5718C52.3858 46.0744 54.6166 51.2911 58.3721 55.3146C59.0912 56.1037 59.8673 56.8387 60.694 57.5136C64.5149 60.6808 69.2374 62.5529 74.1844 62.8616C74.7033 62.8616 75.2222 62.8616 75.741 62.8616C76.2599 62.8616 76.8566 62.8616 77.3884 62.8616C82.274 62.5295 86.9351 60.6784 90.7232 57.5657C91.5541 56.8862 92.3344 56.1469 93.0581 55.3536C96.8352 51.3235 99.0684 46.0824 99.3623 40.5588C99.3623 40.0774 99.4272 39.5959 99.4272 39.1015C99.4272 38.607 99.4401 37.9304 99.3623 37.3579ZM90.4378 52.4909C89.7237 53.2897 88.9426 54.0254 88.103 54.69C85.0377 57.1753 81.2922 58.6681 77.3625 58.971C76.8154 59.03 76.2653 59.0561 75.7151 59.049C75.1962 59.049 74.6514 59.049 74.1585 59.049C70.2346 58.7431 66.4907 57.2708 63.4051 54.8201C62.5626 54.1636 61.7811 53.432 61.0702 52.6341C58.0275 49.3403 56.197 45.1032 55.8815 40.6239C55.8815 40.1424 55.8167 39.648 55.8167 39.1535C55.8167 38.6591 55.8167 37.9824 55.8945 37.4099C56.307 32.7075 58.3686 28.3042 61.7127 24.9829C65.0569 21.6617 69.4669 19.6378 74.1585 19.271C74.6514 19.271 75.1962 19.271 75.7151 19.271C76.234 19.271 76.8306 19.271 77.3625 19.3491C81.7612 19.7027 85.9117 21.5368 89.1407 24.5539C89.9459 25.2617 90.6762 26.051 91.3199 26.9091C93.7225 29.9458 95.1798 33.6253 95.5097 37.488C95.5683 38.0673 95.5943 38.6494 95.5876 39.2316C95.5921 39.7182 95.5705 40.2047 95.5227 40.6889C95.1974 45.0792 93.4165 49.2339 90.4638 52.4909H90.4378Z" fill="#F7941D"/>
<path d="M93.2657 39.1014C93.2657 39.5438 93.2657 39.9602 93.2657 40.4026C92.9866 44.3128 91.406 48.0155 88.7775 50.9164C88.1479 51.622 87.4578 52.2708 86.715 52.8552C84.01 55.044 80.71 56.3636 77.2458 56.6417C76.7618 56.6683 76.2769 56.6683 75.7929 56.6417C75.326 56.6417 74.859 56.6417 74.418 56.6417C70.9592 56.3723 67.6585 55.0769 64.9357 52.9203C64.1962 52.3368 63.5064 51.6926 62.8732 50.9945C60.1974 48.0845 58.5834 44.3509 58.2943 40.4026C58.2943 39.9732 58.2943 39.5438 58.2943 39.1014C58.294 38.5886 58.32 38.0761 58.3721 37.566C58.7019 33.5282 60.4323 29.7342 63.2624 26.844C63.8911 26.1914 64.5675 25.5868 65.286 25.0353C67.9312 23.064 71.0799 21.8863 74.3661 21.6392C74.8071 21.6392 75.2741 21.6392 75.741 21.6392C76.225 21.6126 76.71 21.6126 77.1939 21.6392C81.0662 21.949 84.7217 23.5579 87.5711 26.2064C88.273 26.8363 88.9116 27.5336 89.478 28.2884C91.5988 30.9655 92.8848 34.2109 93.1749 37.618C93.2296 38.1107 93.2599 38.6058 93.2657 39.1014Z" fill="#F7941D"/>
<path d="M81.8766 300.645L85.314 300.163H86.248L90.3989 300.645V302.388H81.8766V300.645ZM83.5629 282.233L85.4308 283.144L81.9155 282.844V281.088H89.2185L100.815 297.053V302.453H98.0651L83.5629 282.233ZM84.6266 281.088L86.702 282.844V302.362H84.6266V281.088ZM95.0038 281.088H103.539V282.831L100.257 283.313H99.3623L95.0168 282.831L95.0038 281.088ZM98.7007 281.088H100.789V302.453L98.7007 300.358V281.088Z" fill="#F7941D"/>
<path d="M119.157 293.085C119.17 293.671 119.109 294.257 118.975 294.828H106.328V293.085H112.334C113.89 293.085 114.293 292.512 114.293 291.068C114.293 288.934 113.281 287.88 112.1 287.88C110.92 287.88 109.506 289.35 109.506 294.035C109.506 297.938 111.465 299.773 113.877 299.773C114.612 299.775 115.339 299.621 116.01 299.32C116.681 299.02 117.28 298.58 117.769 298.029L118.885 299.083C118.244 300.309 117.261 301.32 116.056 301.992C114.851 302.665 113.476 302.97 112.1 302.87C107.405 302.87 104.045 299.786 104.045 294.542C104.014 293.438 104.209 292.339 104.617 291.313C105.025 290.287 105.638 289.356 106.418 288.576C107.198 287.796 108.128 287.184 109.152 286.778C110.176 286.372 111.272 286.18 112.373 286.214C116.744 286.227 119.157 289.181 119.157 293.085Z" fill="#F7941D"/>
<path d="M136.007 293.085C136.02 293.671 135.959 294.257 135.825 294.828H123.178V293.085H129.197C130.741 293.085 131.143 292.512 131.143 291.068C131.143 288.934 130.131 287.88 128.963 287.88C127.796 287.88 126.369 289.35 126.369 294.035C126.369 297.938 128.328 299.773 130.741 299.773C131.475 299.775 132.202 299.621 132.873 299.32C133.544 299.02 134.143 298.58 134.632 298.029L135.748 299.083C135.111 300.309 134.13 301.32 132.927 301.993C131.724 302.666 130.35 302.971 128.976 302.87C124.268 302.87 120.921 299.786 120.921 294.542C120.889 293.437 121.082 292.338 121.489 291.311C121.897 290.284 122.509 289.352 123.29 288.572C124.07 287.792 125.001 287.18 126.026 286.774C127.051 286.369 128.148 286.178 129.249 286.214C130.16 286.151 131.075 286.287 131.929 286.611C132.784 286.935 133.559 287.441 134.2 288.093C134.842 288.746 135.336 289.529 135.648 290.391C135.959 291.252 136.082 292.171 136.007 293.085Z" fill="#F7941D"/>
<path d="M151.145 286.709V288.01L142.428 302.427V300.892H149.951L147.552 302.401L148.849 296.975H151.443L151.119 302.401H137.499V301.1L146.501 286.696V288.179H139.38L141.52 286.696L140.288 291.784L137.693 291.653L137.94 286.696L151.145 286.709Z" fill="#F7941D"/>
<path d="M167.839 293.085C167.852 293.671 167.791 294.257 167.658 294.828H155.01V293.085H161.068C162.625 293.085 163.027 292.512 163.027 291.068C163.027 288.934 162.015 287.88 160.835 287.88C159.654 287.88 158.24 289.35 158.24 294.035C158.24 297.938 160.186 299.773 162.612 299.773C163.346 299.775 164.073 299.621 164.744 299.32C165.415 299.02 166.015 298.58 166.503 298.029L167.619 299.083C166.978 300.309 165.995 301.32 164.79 301.992C163.585 302.665 162.21 302.97 160.835 302.87C156.126 302.87 152.779 299.786 152.779 294.542C152.749 293.438 152.943 292.339 153.351 291.313C153.759 290.287 154.372 289.356 155.152 288.576C155.932 287.796 156.862 287.184 157.886 286.778C158.91 286.372 160.006 286.18 161.107 286.214C165.427 286.227 167.839 289.181 167.839 293.085Z" fill="#F7941D"/>
<path d="M171.445 295.583V293.683C171.445 291.901 171.445 291.237 171.342 289.949L169.37 289.649V288.348L175.752 286.201L176.297 286.54L176.595 290.521V295.557C176.595 297.561 176.595 300.905 176.686 302.362H171.342C171.406 300.892 171.445 297.587 171.445 295.583ZM169.629 300.879L172.717 300.228H176.115L179.202 300.879V302.388H169.629V300.879ZM174.208 291.289H176.634L176.193 292.174C176.764 288.205 179.021 286.227 180.941 286.227C181.625 286.186 182.298 286.411 182.822 286.854C183.346 287.297 183.68 287.925 183.755 288.609C183.691 290.3 182.757 291.211 181.459 291.211C180.95 291.189 180.454 291.039 180.017 290.775C179.579 290.511 179.215 290.142 178.956 289.702L178.022 288.465L179.319 288.934C177.92 290.076 176.954 291.665 176.582 293.436L174.208 293.202V291.289Z" fill="#F7941D"/>
<path d="M203.368 301.1C201.151 302.397 198.618 303.05 196.052 302.987C189.398 302.987 184.871 298.771 184.871 291.692C184.871 284.874 189.113 280.476 196.442 280.476C198.619 280.467 200.767 280.98 202.707 281.972L202.837 287.021H200.32L199.192 281.816L201.423 282.285V283.989C200.219 282.914 198.675 282.301 197.064 282.259C193.575 282.259 190.578 285.186 190.578 291.64C190.578 298.094 193.432 301.1 196.999 301.1C198.306 301.069 199.577 300.673 200.67 299.955L198.206 302.037V299.591C198.206 296.988 198.206 294.503 198.115 291.849H203.459C203.394 294.451 203.355 297.053 203.355 299.656L203.368 301.1ZM195.261 293.631V291.888H205.107V293.631L201.319 294.139H199.243L195.261 293.631Z" fill="#006838"/>
<path d="M208.324 295.583V293.683C208.324 291.901 208.324 291.237 208.22 289.949L206.248 289.649V288.348L212.617 286.201L213.175 286.54L213.473 290.521V295.557C213.473 297.561 213.473 300.905 213.564 302.362H208.194C208.324 300.892 208.324 297.587 208.324 295.583ZM206.508 300.879L209.595 300.228H212.993L216.081 300.879V302.388H206.508V300.879ZM211.087 291.289H213.512L213.071 292.174C213.642 288.205 215.899 286.227 217.819 286.227C218.503 286.186 219.176 286.411 219.7 286.854C220.224 287.297 220.558 287.925 220.634 288.609C220.556 290.3 219.622 291.211 218.338 291.211C217.828 291.19 217.331 291.04 216.894 290.777C216.456 290.513 216.092 290.143 215.834 289.702L214.9 288.465L216.197 288.934C214.798 290.079 213.829 291.666 213.447 293.436L211.087 293.202V291.289Z" fill="#006838"/>
<path d="M236.018 293.085C236.031 293.671 235.97 294.257 235.836 294.828H223.189V293.085H229.247C230.79 293.085 231.192 292.512 231.192 291.068C231.192 288.934 230.181 287.88 229.013 287.88C227.846 287.88 226.419 289.35 226.419 294.035C226.419 297.938 228.378 299.773 230.79 299.773C231.525 299.775 232.252 299.621 232.923 299.321C233.594 299.02 234.193 298.58 234.682 298.029L235.797 299.083C235.16 300.309 234.18 301.32 232.977 301.993C231.773 302.666 230.4 302.971 229.026 302.87C224.318 302.87 220.971 299.786 220.971 294.542C220.938 293.438 221.132 292.338 221.539 291.311C221.947 290.284 222.559 289.352 223.339 288.572C224.12 287.792 225.051 287.18 226.076 286.774C227.101 286.369 228.198 286.178 229.299 286.214C230.207 286.157 231.117 286.297 231.967 286.624C232.817 286.951 233.587 287.457 234.224 288.109C234.861 288.761 235.351 289.542 235.661 290.401C235.971 291.259 236.092 292.175 236.018 293.085Z" fill="#006838"/>
<path d="M252.855 293.085C252.868 293.671 252.807 294.257 252.673 294.828H240.026V293.085H246.084C247.64 293.085 248.042 292.512 248.042 291.068C248.042 288.934 247.018 287.88 245.85 287.88C244.683 287.88 243.256 289.35 243.256 294.035C243.256 297.938 245.202 299.773 247.614 299.773C248.349 299.775 249.076 299.621 249.747 299.32C250.418 299.02 251.017 298.58 251.506 298.029L252.621 299.083C251.98 300.307 250.996 301.317 249.791 301.99C248.587 302.662 247.213 302.968 245.837 302.87C241.129 302.87 237.782 299.786 237.782 294.542C237.749 293.437 237.943 292.338 238.35 291.311C238.758 290.284 239.37 289.352 240.151 288.572C240.931 287.791 241.862 287.18 242.887 286.774C243.912 286.369 245.009 286.178 246.11 286.214C250.442 286.227 252.855 289.181 252.855 293.085Z" fill="#006838"/>
<path d="M256.318 302.388C256.383 300.931 256.422 297.587 256.422 295.583V293.709C256.422 291.927 256.422 291.237 256.318 289.949L254.347 289.649V288.348L260.716 286.201L261.274 286.54L261.572 290.144V295.557C261.572 297.561 261.572 300.905 261.663 302.362L256.318 302.388ZM263.141 300.879V302.388H254.632V300.892L257.629 300.241H260.093L263.141 300.879ZM271.301 291.77V295.557C271.301 297.626 271.301 300.905 271.404 302.362H266.06C266.06 300.905 266.151 297.626 266.151 295.557V292.174C266.151 290.092 265.632 289.363 264.348 289.363C263.558 289.47 262.797 289.735 262.111 290.142C261.425 290.549 260.827 291.089 260.353 291.731H259.25V289.649H261.507L260.21 290.56C262.48 287.268 264.322 286.227 266.696 286.227C269.485 286.227 271.339 288.062 271.339 291.783L271.301 291.77ZM269.796 300.202L272.961 300.853V302.362H264.426V300.892L267.357 300.241L269.796 300.202Z" fill="#006838"/>
<path d="M289.603 293.085C289.616 293.671 289.555 294.257 289.422 294.828H276.775V293.085H282.832C284.389 293.085 284.791 292.512 284.791 291.068C284.791 288.934 283.779 287.88 282.599 287.88C281.418 287.88 280.005 289.35 280.005 294.035C280.005 297.938 281.963 299.773 284.376 299.773C285.111 299.775 285.838 299.621 286.508 299.32C287.179 299.02 287.779 298.58 288.267 298.029L289.383 299.083C288.742 300.309 287.759 301.32 286.554 301.992C285.349 302.665 283.974 302.97 282.599 302.87C277.903 302.87 274.556 299.786 274.556 294.542C274.524 293.439 274.717 292.34 275.124 291.314C275.53 290.288 276.142 289.357 276.921 288.577C277.699 287.796 278.629 287.185 279.652 286.778C280.676 286.372 281.771 286.18 282.871 286.214C287.191 286.227 289.603 289.181 289.603 293.085Z" fill="#006838"/>
</svg>
