<svg width="503" height="341" viewBox="0 0 503 341" fill="none" xmlns="http://www.w3.org/2000/svg">
<path d="M232 0L232 341" stroke="#F7941D" stroke-width="2.07398"/>
<circle r="26.9617" transform="matrix(-1 0 0 1 232.962 171.574)" fill="#F7941D"/>
<circle r="26.9617" transform="matrix(-1 0 0 1 232.962 53.2321)" fill="#F7941D"/>
<circle r="26.9617" transform="matrix(-1 0 0 1 232.962 291.916)" fill="#F7941D"/>
<path d="M243.864 279.92H245.864V277.92H243.864V279.92ZM243.864 285.4V287.4H245.864V285.4H243.864ZM236.424 285.4V283.4H234.424V285.4H236.424ZM236.424 308V310H238.424V308H236.424ZM229.584 308H227.584V310H229.584V308ZM229.584 285.4H231.584V283.4H229.584V285.4ZM222.144 285.4H220.144V287.4H222.144V285.4ZM222.144 279.92V277.92H220.144V279.92H222.144ZM241.864 279.92V285.4H245.864V279.92H241.864ZM243.864 283.4H236.424V287.4H243.864V283.4ZM234.424 285.4V308H238.424V285.4H234.424ZM236.424 306H229.584V310H236.424V306ZM231.584 308V285.4H227.584V308H231.584ZM229.584 283.4H222.144V287.4H229.584V283.4ZM224.144 285.4V279.92H220.144V285.4H224.144ZM222.144 281.92H243.864V277.92H222.144V281.92Z" fill="white"/>
<path d="M220.386 164.52L222.134 165.491L222.139 165.482L220.386 164.52ZM225.386 159.44L226.366 161.183L226.373 161.179L225.386 159.44ZM241.266 160.24L242.457 158.634H242.457L241.266 160.24ZM246.026 167.44V169.44H248.62L247.96 166.931L246.026 167.44ZM238.506 167.44L236.701 168.301L237.244 169.44H238.506V167.44ZM236.106 164.76L235.07 166.471L235.08 166.477L235.09 166.483L236.106 164.76ZM227.506 166.04L228.999 167.37L227.506 166.04ZM227.506 177.8L226.012 179.13L227.506 177.8ZM236.106 179.08L235.09 177.357L235.08 177.363L235.07 177.369L236.106 179.08ZM238.506 176.4V174.4H237.244L236.701 175.539L238.506 176.4ZM246.026 176.4L247.96 176.909L248.62 174.4H246.026V176.4ZM241.266 183.6L242.445 185.215L242.451 185.211L242.457 185.206L241.266 183.6ZM225.386 184.4L224.389 186.134L224.401 186.141L224.414 186.148L225.386 184.4ZM220.386 179.32L222.134 178.349L220.386 179.32ZM220.586 171.92C220.586 169.444 221.118 167.319 222.134 165.491L218.637 163.549C217.253 166.041 216.586 168.849 216.586 171.92H220.586ZM222.139 165.482C223.163 163.616 224.565 162.196 226.366 161.183L224.405 157.697C221.94 159.084 220.008 161.05 218.632 163.558L222.139 165.482ZM226.373 161.179C228.204 160.139 230.298 159.6 232.706 159.6V155.6C229.673 155.6 226.887 156.287 224.398 157.701L226.373 161.179ZM232.706 159.6C235.667 159.6 238.089 160.374 240.074 161.846L242.457 158.634C239.695 156.586 236.41 155.6 232.706 155.6V159.6ZM240.074 161.846C242.058 163.318 243.399 165.318 244.091 167.949L247.96 166.931C247.052 163.482 245.22 160.682 242.457 158.634L240.074 161.846ZM246.026 165.44H238.506V169.44H246.026V165.44ZM240.311 166.579C239.593 165.075 238.531 163.868 237.122 163.037L235.09 166.483C235.76 166.878 236.298 167.458 236.701 168.301L240.311 166.579ZM237.141 163.049C235.784 162.227 234.259 161.84 232.626 161.84V165.84C233.606 165.84 234.401 166.066 235.07 166.471L237.141 163.049ZM232.626 161.84C229.995 161.84 227.728 162.783 226.012 164.71L228.999 167.37C229.896 166.363 231.043 165.84 232.626 165.84V161.84ZM226.012 164.71C224.304 166.627 223.546 169.103 223.546 171.92H227.546C227.546 169.83 228.094 168.386 228.999 167.37L226.012 164.71ZM223.546 171.92C223.546 174.737 224.304 177.213 226.012 179.13L228.999 176.47C228.094 175.454 227.546 174.01 227.546 171.92H223.546ZM226.012 179.13C227.728 181.057 229.995 182 232.626 182V178C231.043 178 229.896 177.477 228.999 176.47L226.012 179.13ZM232.626 182C234.259 182 235.784 181.613 237.141 180.791L235.07 177.369C234.401 177.774 233.606 178 232.626 178V182ZM237.122 180.803C238.531 179.972 239.593 178.765 240.311 177.261L236.701 175.539C236.298 176.382 235.76 176.962 235.09 177.357L237.122 180.803ZM238.506 178.4H246.026V174.4H238.506V178.4ZM244.091 175.891C243.399 178.522 242.058 180.522 240.074 181.994L242.457 185.206C245.22 183.158 247.052 180.358 247.96 176.909L244.091 175.891ZM240.086 181.985C238.1 183.435 235.674 184.2 232.706 184.2V188.2C236.404 188.2 239.684 187.231 242.445 185.215L240.086 181.985ZM232.706 184.2C230.29 184.2 228.191 183.67 226.357 182.652L224.414 186.148C226.901 187.53 229.681 188.2 232.706 188.2V184.2ZM226.383 182.666C224.566 181.621 223.158 180.192 222.134 178.349L218.637 180.291C220.013 182.768 221.939 184.725 224.389 186.134L226.383 182.666ZM222.134 178.349C221.118 176.521 220.586 174.396 220.586 171.92H216.586C216.586 174.991 217.253 177.799 218.637 180.291L222.134 178.349Z" fill="white"/>
<path d="M238.214 59.04L240.108 58.3984L239.648 57.04H238.214V59.04ZM227.734 59.04V57.04H226.3L225.84 58.3984L227.734 59.04ZM226.054 64V66H227.488L227.948 64.6416L226.054 64ZM218.894 64L217.013 63.3195L216.043 66H218.894V64ZM229.054 35.92V33.92H227.651L227.173 35.2395L229.054 35.92ZM236.974 35.92L238.855 35.2395L238.377 33.92H236.974V35.92ZM247.134 64V66H249.984L249.015 63.3195L247.134 64ZM239.894 64L238 64.6416L238.46 66H239.894V64ZM236.454 53.76V55.76H239.242L238.348 53.1187L236.454 53.76ZM232.974 43.48L234.868 42.8387L232.963 37.2102L231.077 42.8453L232.974 43.48ZM229.534 53.76L227.637 53.1253L226.756 55.76H229.534V53.76ZM238.214 57.04H227.734V61.04H238.214V57.04ZM225.84 58.3984L224.16 63.3584L227.948 64.6416L229.628 59.6816L225.84 58.3984ZM226.054 62H218.894V66H226.054V62ZM220.775 64.6805L230.935 36.6005L227.173 35.2395L217.013 63.3195L220.775 64.6805ZM229.054 37.92H236.974V33.92H229.054V37.92ZM235.093 36.6005L245.253 64.6805L249.015 63.3195L238.855 35.2395L235.093 36.6005ZM247.134 62H239.894V66H247.134V62ZM241.788 63.3584L240.108 58.3984L236.32 59.6816L238 64.6416L241.788 63.3584ZM238.348 53.1187L234.868 42.8387L231.08 44.1213L234.56 54.4013L238.348 53.1187ZM231.077 42.8453L227.637 53.1253L231.431 54.3947L234.871 44.1147L231.077 42.8453ZM229.534 55.76H236.454V51.76H229.534V55.76Z" fill="white"/>
<rect x="1" y="11" width="193" height="73" rx="30" fill="white"/>
<rect x="273" y="133" width="230" height="73" rx="30" fill="white"/>
<rect y="257" width="193" height="73" rx="30" fill="white"/>
<path d="M20.7692 41.15H15.0092L13.7792 44H12.8192L17.4692 33.32H18.3092L22.9442 44H21.9842L20.7692 41.15ZM20.4092 40.34L17.8892 34.445L15.3542 40.34H20.4092ZM27.6176 44.105C26.9076 44.105 26.2876 43.945 25.7576 43.625C25.2276 43.305 24.8176 42.855 24.5276 42.275C24.2376 41.685 24.0926 41.005 24.0926 40.235C24.0926 39.455 24.2376 38.77 24.5276 38.18C24.8176 37.58 25.2326 37.12 25.7726 36.8C26.3126 36.47 26.9376 36.305 27.6476 36.305C28.1576 36.305 28.6426 36.395 29.1026 36.575C29.5726 36.745 29.9576 36.985 30.2576 37.295L29.8976 38.015C29.5076 37.695 29.1326 37.465 28.7726 37.325C28.4226 37.175 28.0576 37.1 27.6776 37.1C26.8676 37.1 26.2276 37.38 25.7576 37.94C25.2876 38.49 25.0526 39.255 25.0526 40.235C25.0526 41.195 25.2826 41.945 25.7426 42.485C26.2126 43.025 26.8576 43.295 27.6776 43.295C28.0576 43.295 28.4226 43.225 28.7726 43.085C29.1326 42.935 29.5076 42.705 29.8976 42.395L30.2576 43.1C29.9376 43.41 29.5376 43.655 29.0576 43.835C28.5876 44.015 28.1076 44.105 27.6176 44.105ZM34.9712 44.105C34.2612 44.105 33.6412 43.945 33.1112 43.625C32.5812 43.305 32.1712 42.855 31.8812 42.275C31.5912 41.685 31.4462 41.005 31.4462 40.235C31.4462 39.455 31.5912 38.77 31.8812 38.18C32.1712 37.58 32.5862 37.12 33.1262 36.8C33.6662 36.47 34.2912 36.305 35.0012 36.305C35.5112 36.305 35.9962 36.395 36.4562 36.575C36.9262 36.745 37.3112 36.985 37.6112 37.295L37.2512 38.015C36.8612 37.695 36.4862 37.465 36.1262 37.325C35.7762 37.175 35.4112 37.1 35.0312 37.1C34.2212 37.1 33.5812 37.38 33.1112 37.94C32.6412 38.49 32.4062 39.255 32.4062 40.235C32.4062 41.195 32.6362 41.945 33.0962 42.485C33.5662 43.025 34.2112 43.295 35.0312 43.295C35.4112 43.295 35.7762 43.225 36.1262 43.085C36.4862 42.935 36.8612 42.705 37.2512 42.395L37.6112 43.1C37.2912 43.41 36.8912 43.655 36.4112 43.835C35.9412 44.015 35.4612 44.105 34.9712 44.105ZM39.7597 40.13V40.175C39.7597 41.185 39.9897 41.96 40.4497 42.5C40.9197 43.03 41.5997 43.295 42.4897 43.295C43.3897 43.295 44.2147 42.985 44.9647 42.365L45.3247 43.085C44.9947 43.395 44.5747 43.645 44.0647 43.835C43.5547 44.015 43.0297 44.105 42.4897 44.105C41.3497 44.105 40.4497 43.76 39.7897 43.07C39.1297 42.38 38.7997 41.43 38.7997 40.22C38.7997 39.45 38.9447 38.77 39.2347 38.18C39.5347 37.58 39.9497 37.12 40.4797 36.8C41.0097 36.47 41.6197 36.305 42.3097 36.305C43.2997 36.305 44.0697 36.625 44.6197 37.265C45.1797 37.905 45.4597 38.795 45.4597 39.935V40.13H39.7597ZM42.3097 37.055C41.6197 37.055 41.0597 37.265 40.6297 37.685C40.1997 38.095 39.9297 38.675 39.8197 39.425H44.5897C44.5297 38.655 44.3047 38.07 43.9147 37.67C43.5247 37.26 42.9897 37.055 42.3097 37.055ZM49.8692 44.105C48.6492 44.105 47.6842 43.77 46.9742 43.1L47.3042 42.395C47.7042 42.725 48.1042 42.96 48.5042 43.1C48.9142 43.24 49.3842 43.31 49.9142 43.31C50.5342 43.31 51.0042 43.205 51.3242 42.995C51.6542 42.775 51.8192 42.46 51.8192 42.05C51.8192 41.71 51.7092 41.445 51.4892 41.255C51.2792 41.055 50.9292 40.895 50.4392 40.775L49.1642 40.49C48.5642 40.35 48.0892 40.1 47.7392 39.74C47.3992 39.38 47.2292 38.96 47.2292 38.48C47.2292 37.82 47.4792 37.295 47.9792 36.905C48.4892 36.505 49.1642 36.305 50.0042 36.305C50.5342 36.305 51.0242 36.39 51.4742 36.56C51.9342 36.73 52.3142 36.975 52.6142 37.295L52.2692 38C51.5792 37.4 50.8242 37.1 50.0042 37.1C49.4242 37.1 48.9742 37.215 48.6542 37.445C48.3342 37.675 48.1742 37.995 48.1742 38.405C48.1742 38.745 48.2742 39.02 48.4742 39.23C48.6842 39.44 49.0042 39.595 49.4342 39.695L50.7242 40.01C52.0742 40.31 52.7492 40.975 52.7492 42.005C52.7492 42.635 52.4892 43.145 51.9692 43.535C51.4492 43.915 50.7492 44.105 49.8692 44.105ZM57.2813 44.105C56.0613 44.105 55.0963 43.77 54.3863 43.1L54.7163 42.395C55.1163 42.725 55.5163 42.96 55.9163 43.1C56.3263 43.24 56.7963 43.31 57.3263 43.31C57.9463 43.31 58.4163 43.205 58.7363 42.995C59.0663 42.775 59.2313 42.46 59.2313 42.05C59.2313 41.71 59.1213 41.445 58.9013 41.255C58.6913 41.055 58.3413 40.895 57.8513 40.775L56.5763 40.49C55.9763 40.35 55.5013 40.1 55.1513 39.74C54.8113 39.38 54.6413 38.96 54.6413 38.48C54.6413 37.82 54.8913 37.295 55.3913 36.905C55.9013 36.505 56.5763 36.305 57.4163 36.305C57.9463 36.305 58.4363 36.39 58.8863 36.56C59.3463 36.73 59.7263 36.975 60.0263 37.295L59.6813 38C58.9913 37.4 58.2363 37.1 57.4163 37.1C56.8363 37.1 56.3863 37.215 56.0663 37.445C55.7463 37.675 55.5863 37.995 55.5863 38.405C55.5863 38.745 55.6863 39.02 55.8863 39.23C56.0963 39.44 56.4163 39.595 56.8463 39.695L58.1363 40.01C59.4863 40.31 60.1613 40.975 60.1613 42.005C60.1613 42.635 59.9013 43.145 59.3813 43.535C58.8613 43.915 58.1613 44.105 57.2813 44.105ZM67.3467 37.22V41.69C67.3467 42.29 67.4617 42.705 67.6917 42.935C67.9217 43.165 68.2617 43.28 68.7117 43.28C68.9917 43.28 69.2617 43.235 69.5217 43.145V43.97C69.2017 44.05 68.8767 44.09 68.5467 44.09C67.8867 44.09 67.3667 43.905 66.9867 43.535C66.6167 43.165 66.4317 42.61 66.4317 41.87V37.22H64.9467V36.485H66.4317V34.49L67.3467 34.145V36.485H69.5667V37.22H67.3467ZM74.1104 44.105C73.4204 44.105 72.8104 43.945 72.2804 43.625C71.7604 43.305 71.3554 42.85 71.0654 42.26C70.7854 41.67 70.6454 40.985 70.6454 40.205C70.6454 39.425 70.7854 38.74 71.0654 38.15C71.3554 37.56 71.7604 37.105 72.2804 36.785C72.8104 36.465 73.4204 36.305 74.1104 36.305C74.7904 36.305 75.3904 36.465 75.9104 36.785C76.4304 37.105 76.8304 37.56 77.1104 38.15C77.4004 38.74 77.5454 39.425 77.5454 40.205C77.5454 40.985 77.4004 41.67 77.1104 42.26C76.8304 42.85 76.4304 43.305 75.9104 43.625C75.3904 43.945 74.7904 44.105 74.1104 44.105ZM74.0954 43.295C74.8954 43.295 75.5104 43.03 75.9404 42.5C76.3804 41.96 76.6004 41.195 76.6004 40.205C76.6004 39.225 76.3804 38.465 75.9404 37.925C75.5004 37.375 74.8904 37.1 74.1104 37.1C73.3204 37.1 72.7054 37.375 72.2654 37.925C71.8254 38.465 71.6054 39.225 71.6054 40.205C71.6054 41.205 71.8204 41.97 72.2504 42.5C72.6804 43.03 73.2954 43.295 74.0954 43.295ZM89.7465 36.485V44H88.8315V42.56C88.6115 43.06 88.2765 43.445 87.8265 43.715C87.3865 43.975 86.8565 44.105 86.2365 44.105C85.5665 44.105 84.9765 43.95 84.4665 43.64C83.9665 43.32 83.5765 42.87 83.2965 42.29C83.0265 41.7 82.8915 41.015 82.8915 40.235C82.8915 39.455 83.0315 38.77 83.3115 38.18C83.5915 37.58 83.9815 37.12 84.4815 36.8C84.9915 36.47 85.5765 36.305 86.2365 36.305C86.8465 36.305 87.3715 36.435 87.8115 36.695C88.2615 36.955 88.6015 37.335 88.8315 37.835V36.485H89.7465ZM86.3715 43.295C87.1515 43.295 87.7565 43.025 88.1865 42.485C88.6165 41.945 88.8315 41.185 88.8315 40.205C88.8315 39.215 88.6165 38.45 88.1865 37.91C87.7565 37.37 87.1465 37.1 86.3565 37.1C85.5665 37.1 84.9515 37.38 84.5115 37.94C84.0715 38.49 83.8515 39.255 83.8515 40.235C83.8515 41.205 84.0715 41.96 84.5115 42.5C84.9515 43.03 85.5715 43.295 86.3715 43.295ZM94.8288 33.725C94.3988 33.725 94.0688 33.84 93.8388 34.07C93.6088 34.3 93.4938 34.71 93.4938 35.3V36.485H95.4288V37.22H93.4938V44H92.5788V37.22H91.1088V36.485H92.5788V35.135C92.5788 34.385 92.7638 33.825 93.1338 33.455C93.5038 33.085 94.0138 32.9 94.6638 32.9C94.9638 32.9 95.2738 32.94 95.5938 33.02V33.845C95.3238 33.765 95.0688 33.725 94.8288 33.725ZM99.7506 33.725C99.3206 33.725 98.9906 33.84 98.7606 34.07C98.5306 34.3 98.4156 34.71 98.4156 35.3V36.485H100.351V37.22H98.4156V44H97.5006V37.22H96.0306V36.485H97.5006V35.135C97.5006 34.385 97.6856 33.825 98.0556 33.455C98.4256 33.085 98.9356 32.9 99.5856 32.9C99.8856 32.9 100.196 32.94 100.516 33.02V33.845C100.246 33.765 99.9906 33.725 99.7506 33.725ZM104.931 44.105C104.241 44.105 103.631 43.945 103.101 43.625C102.581 43.305 102.176 42.85 101.886 42.26C101.606 41.67 101.466 40.985 101.466 40.205C101.466 39.425 101.606 38.74 101.886 38.15C102.176 37.56 102.581 37.105 103.101 36.785C103.631 36.465 104.241 36.305 104.931 36.305C105.611 36.305 106.211 36.465 106.731 36.785C107.251 37.105 107.651 37.56 107.931 38.15C108.221 38.74 108.366 39.425 108.366 40.205C108.366 40.985 108.221 41.67 107.931 42.26C107.651 42.85 107.251 43.305 106.731 43.625C106.211 43.945 105.611 44.105 104.931 44.105ZM104.916 43.295C105.716 43.295 106.331 43.03 106.761 42.5C107.201 41.96 107.421 41.195 107.421 40.205C107.421 39.225 107.201 38.465 106.761 37.925C106.321 37.375 105.711 37.1 104.931 37.1C104.141 37.1 103.526 37.375 103.086 37.925C102.646 38.465 102.426 39.225 102.426 40.205C102.426 41.205 102.641 41.97 103.071 42.5C103.501 43.03 104.116 43.295 104.916 43.295ZM113.609 36.305C113.859 36.305 114.079 36.325 114.269 36.365L114.224 37.19C114.034 37.15 113.804 37.13 113.534 37.13C112.774 37.13 112.204 37.375 111.824 37.865C111.454 38.345 111.269 38.92 111.269 39.59V44H110.369V38.57C110.369 37.79 110.329 37.095 110.249 36.485H111.119L111.239 37.88C111.429 37.37 111.734 36.98 112.154 36.71C112.584 36.44 113.069 36.305 113.609 36.305ZM121.827 32.96V44H120.912V42.56C120.692 43.06 120.357 43.445 119.907 43.715C119.467 43.975 118.937 44.105 118.317 44.105C117.657 44.105 117.072 43.945 116.562 43.625C116.062 43.295 115.672 42.835 115.392 42.245C115.112 41.645 114.972 40.955 114.972 40.175C114.972 39.395 115.107 38.715 115.377 38.135C115.657 37.545 116.047 37.095 116.547 36.785C117.057 36.465 117.647 36.305 118.317 36.305C118.927 36.305 119.452 36.435 119.892 36.695C120.342 36.955 120.682 37.335 120.912 37.835V32.96H121.827ZM118.437 43.295C119.227 43.295 119.837 43.025 120.267 42.485C120.697 41.945 120.912 41.185 120.912 40.205C120.912 39.225 120.697 38.465 120.267 37.925C119.837 37.375 119.232 37.1 118.452 37.1C117.652 37.1 117.032 37.37 116.592 37.91C116.152 38.45 115.932 39.205 115.932 40.175C115.932 41.155 116.152 41.92 116.592 42.47C117.032 43.02 117.647 43.295 118.437 43.295ZM130.689 36.485V44H129.774V42.56C129.554 43.06 129.219 43.445 128.769 43.715C128.329 43.975 127.799 44.105 127.179 44.105C126.509 44.105 125.919 43.95 125.409 43.64C124.909 43.32 124.519 42.87 124.239 42.29C123.969 41.7 123.834 41.015 123.834 40.235C123.834 39.455 123.974 38.77 124.254 38.18C124.534 37.58 124.924 37.12 125.424 36.8C125.934 36.47 126.519 36.305 127.179 36.305C127.789 36.305 128.314 36.435 128.754 36.695C129.204 36.955 129.544 37.335 129.774 37.835V36.485H130.689ZM127.314 43.295C128.094 43.295 128.699 43.025 129.129 42.485C129.559 41.945 129.774 41.185 129.774 40.205C129.774 39.215 129.559 38.45 129.129 37.91C128.699 37.37 128.089 37.1 127.299 37.1C126.509 37.1 125.894 37.38 125.454 37.94C125.014 38.49 124.794 39.255 124.794 40.235C124.794 41.205 125.014 41.96 125.454 42.5C125.894 43.03 126.514 43.295 127.314 43.295ZM136.686 36.305C137.346 36.305 137.931 36.465 138.441 36.785C138.951 37.105 139.341 37.555 139.611 38.135C139.891 38.715 140.031 39.395 140.031 40.175C140.031 40.955 139.891 41.645 139.611 42.245C139.331 42.835 138.936 43.295 138.426 43.625C137.926 43.945 137.346 44.105 136.686 44.105C136.066 44.105 135.531 43.97 135.081 43.7C134.641 43.43 134.311 43.04 134.091 42.53V44H133.176V32.96H134.076V37.895C134.296 37.375 134.631 36.98 135.081 36.71C135.531 36.44 136.066 36.305 136.686 36.305ZM136.581 43.295C137.361 43.295 137.971 43.02 138.411 42.47C138.851 41.92 139.071 41.155 139.071 40.175C139.071 39.205 138.851 38.45 138.411 37.91C137.971 37.37 137.356 37.1 136.566 37.1C135.776 37.1 135.166 37.37 134.736 37.91C134.306 38.45 134.091 39.215 134.091 40.205C134.091 41.195 134.306 41.96 134.736 42.5C135.166 43.03 135.781 43.295 136.581 43.295ZM142.038 32.96H142.938V44H142.038V32.96ZM145.932 40.13V40.175C145.932 41.185 146.162 41.96 146.622 42.5C147.092 43.03 147.772 43.295 148.662 43.295C149.562 43.295 150.387 42.985 151.137 42.365L151.497 43.085C151.167 43.395 150.747 43.645 150.237 43.835C149.727 44.015 149.202 44.105 148.662 44.105C147.522 44.105 146.622 43.76 145.962 43.07C145.302 42.38 144.972 41.43 144.972 40.22C144.972 39.45 145.117 38.77 145.407 38.18C145.707 37.58 146.122 37.12 146.652 36.8C147.182 36.47 147.792 36.305 148.482 36.305C149.472 36.305 150.242 36.625 150.792 37.265C151.352 37.905 151.632 38.795 151.632 39.935V40.13H145.932ZM148.482 37.055C147.792 37.055 147.232 37.265 146.802 37.685C146.372 38.095 146.102 38.675 145.992 39.425H150.762C150.702 38.655 150.477 38.07 150.087 37.67C149.697 37.26 149.162 37.055 148.482 37.055ZM163.794 36.485V44H162.879V42.56C162.659 43.06 162.324 43.445 161.874 43.715C161.434 43.975 160.904 44.105 160.284 44.105C159.614 44.105 159.024 43.95 158.514 43.64C158.014 43.32 157.624 42.87 157.344 42.29C157.074 41.7 156.939 41.015 156.939 40.235C156.939 39.455 157.079 38.77 157.359 38.18C157.639 37.58 158.029 37.12 158.529 36.8C159.039 36.47 159.624 36.305 160.284 36.305C160.894 36.305 161.419 36.435 161.859 36.695C162.309 36.955 162.649 37.335 162.879 37.835V36.485H163.794ZM160.419 43.295C161.199 43.295 161.804 43.025 162.234 42.485C162.664 41.945 162.879 41.185 162.879 40.205C162.879 39.215 162.664 38.45 162.234 37.91C161.804 37.37 161.194 37.1 160.404 37.1C159.614 37.1 158.999 37.38 158.559 37.94C158.119 38.49 157.899 39.255 157.899 40.235C157.899 41.205 158.119 41.96 158.559 42.5C158.999 43.03 159.619 43.295 160.419 43.295ZM169.777 36.305C171.587 36.305 172.492 37.275 172.492 39.215V44H171.577V39.275C171.577 38.525 171.422 37.975 171.112 37.625C170.812 37.275 170.337 37.1 169.687 37.1C168.937 37.1 168.332 37.33 167.872 37.79C167.412 38.25 167.182 38.87 167.182 39.65V44H166.282V38.57C166.282 37.79 166.242 37.095 166.162 36.485H167.032L167.152 37.865C167.382 37.355 167.727 36.97 168.187 36.71C168.647 36.44 169.177 36.305 169.777 36.305ZM181.328 32.96V44H180.413V42.56C180.193 43.06 179.858 43.445 179.408 43.715C178.968 43.975 178.438 44.105 177.818 44.105C177.158 44.105 176.573 43.945 176.063 43.625C175.563 43.295 175.173 42.835 174.893 42.245C174.613 41.645 174.473 40.955 174.473 40.175C174.473 39.395 174.608 38.715 174.878 38.135C175.158 37.545 175.548 37.095 176.048 36.785C176.558 36.465 177.148 36.305 177.818 36.305C178.428 36.305 178.953 36.435 179.393 36.695C179.843 36.955 180.183 37.335 180.413 37.835V32.96H181.328ZM177.938 43.295C178.728 43.295 179.338 43.025 179.768 42.485C180.198 41.945 180.413 41.185 180.413 40.205C180.413 39.225 180.198 38.465 179.768 37.925C179.338 37.375 178.733 37.1 177.953 37.1C177.153 37.1 176.533 37.37 176.093 37.91C175.653 38.45 175.433 39.205 175.433 40.175C175.433 41.155 175.653 41.92 176.093 42.47C176.533 43.02 177.148 43.295 177.938 43.295ZM29.8296 63.105C29.1196 63.105 28.4996 62.945 27.9696 62.625C27.4396 62.305 27.0296 61.855 26.7396 61.275C26.4496 60.685 26.3046 60.005 26.3046 59.235C26.3046 58.455 26.4496 57.77 26.7396 57.18C27.0296 56.58 27.4446 56.12 27.9846 55.8C28.5246 55.47 29.1496 55.305 29.8596 55.305C30.3696 55.305 30.8546 55.395 31.3146 55.575C31.7846 55.745 32.1696 55.985 32.4696 56.295L32.1096 57.015C31.7196 56.695 31.3446 56.465 30.9846 56.325C30.6346 56.175 30.2696 56.1 29.8896 56.1C29.0796 56.1 28.4396 56.38 27.9696 56.94C27.4996 57.49 27.2646 58.255 27.2646 59.235C27.2646 60.195 27.4946 60.945 27.9546 61.485C28.4246 62.025 29.0696 62.295 29.8896 62.295C30.2696 62.295 30.6346 62.225 30.9846 62.085C31.3446 61.935 31.7196 61.705 32.1096 61.395L32.4696 62.1C32.1496 62.41 31.7496 62.655 31.2696 62.835C30.7996 63.015 30.3196 63.105 29.8296 63.105ZM34.1381 51.96H35.0381V63H34.1381V51.96ZM38.0312 59.13V59.175C38.0312 60.185 38.2612 60.96 38.7212 61.5C39.1912 62.03 39.8712 62.295 40.7612 62.295C41.6612 62.295 42.4862 61.985 43.2362 61.365L43.5962 62.085C43.2662 62.395 42.8462 62.645 42.3362 62.835C41.8262 63.015 41.3012 63.105 40.7612 63.105C39.6212 63.105 38.7212 62.76 38.0612 62.07C37.4012 61.38 37.0712 60.43 37.0712 59.22C37.0712 58.45 37.2162 57.77 37.5062 57.18C37.8062 56.58 38.2212 56.12 38.7512 55.8C39.2812 55.47 39.8912 55.305 40.5812 55.305C41.5712 55.305 42.3412 55.625 42.8912 56.265C43.4512 56.905 43.7312 57.795 43.7312 58.935V59.13H38.0312ZM40.5812 56.055C39.8912 56.055 39.3312 56.265 38.9012 56.685C38.4712 57.095 38.2012 57.675 38.0912 58.425H42.8612C42.8012 57.655 42.5762 57.07 42.1862 56.67C41.7962 56.26 41.2612 56.055 40.5812 56.055ZM52.0707 55.485V63H51.1557V61.56C50.9357 62.06 50.6007 62.445 50.1507 62.715C49.7107 62.975 49.1807 63.105 48.5607 63.105C47.8907 63.105 47.3007 62.95 46.7907 62.64C46.2907 62.32 45.9007 61.87 45.6207 61.29C45.3507 60.7 45.2157 60.015 45.2157 59.235C45.2157 58.455 45.3557 57.77 45.6357 57.18C45.9157 56.58 46.3057 56.12 46.8057 55.8C47.3157 55.47 47.9007 55.305 48.5607 55.305C49.1707 55.305 49.6957 55.435 50.1357 55.695C50.5857 55.955 50.9257 56.335 51.1557 56.835V55.485H52.0707ZM48.6957 62.295C49.4757 62.295 50.0807 62.025 50.5107 61.485C50.9407 60.945 51.1557 60.185 51.1557 59.205C51.1557 58.215 50.9407 57.45 50.5107 56.91C50.0807 56.37 49.4707 56.1 48.6807 56.1C47.8907 56.1 47.2757 56.38 46.8357 56.94C46.3957 57.49 46.1757 58.255 46.1757 59.235C46.1757 60.205 46.3957 60.96 46.8357 61.5C47.2757 62.03 47.8957 62.295 48.6957 62.295ZM58.053 55.305C59.863 55.305 60.768 56.275 60.768 58.215V63H59.853V58.275C59.853 57.525 59.698 56.975 59.388 56.625C59.088 56.275 58.613 56.1 57.963 56.1C57.213 56.1 56.608 56.33 56.148 56.79C55.688 57.25 55.458 57.87 55.458 58.65V63H54.558V57.57C54.558 56.79 54.518 56.095 54.438 55.485H55.308L55.428 56.865C55.658 56.355 56.003 55.97 56.463 55.71C56.923 55.44 57.453 55.305 58.053 55.305ZM67.5331 59.13V59.175C67.5331 60.185 67.7631 60.96 68.2231 61.5C68.6931 62.03 69.3731 62.295 70.2631 62.295C71.1631 62.295 71.9881 61.985 72.7381 61.365L73.0981 62.085C72.7681 62.395 72.3481 62.645 71.8381 62.835C71.3281 63.015 70.8031 63.105 70.2631 63.105C69.1231 63.105 68.2231 62.76 67.5631 62.07C66.9031 61.38 66.5731 60.43 66.5731 59.22C66.5731 58.45 66.7181 57.77 67.0081 57.18C67.3081 56.58 67.7231 56.12 68.2531 55.8C68.7831 55.47 69.3931 55.305 70.0831 55.305C71.0731 55.305 71.8431 55.625 72.3931 56.265C72.9531 56.905 73.2331 57.795 73.2331 58.935V59.13H67.5331ZM70.0831 56.055C69.3931 56.055 68.8331 56.265 68.4031 56.685C67.9731 57.095 67.7031 57.675 67.5931 58.425H72.3631C72.3031 57.655 72.0781 57.07 71.6881 56.67C71.2981 56.26 70.7631 56.055 70.0831 56.055ZM78.6926 55.305C80.5026 55.305 81.4076 56.275 81.4076 58.215V63H80.4926V58.275C80.4926 57.525 80.3376 56.975 80.0276 56.625C79.7276 56.275 79.2526 56.1 78.6026 56.1C77.8526 56.1 77.2476 56.33 76.7876 56.79C76.3276 57.25 76.0976 57.87 76.0976 58.65V63H75.1976V57.57C75.1976 56.79 75.1576 56.095 75.0776 55.485H75.9476L76.0676 56.865C76.2976 56.355 76.6426 55.97 77.1026 55.71C77.5626 55.44 78.0926 55.305 78.6926 55.305ZM84.3495 59.13V59.175C84.3495 60.185 84.5795 60.96 85.0395 61.5C85.5095 62.03 86.1895 62.295 87.0795 62.295C87.9795 62.295 88.8045 61.985 89.5545 61.365L89.9145 62.085C89.5845 62.395 89.1645 62.645 88.6545 62.835C88.1445 63.015 87.6195 63.105 87.0795 63.105C85.9395 63.105 85.0395 62.76 84.3795 62.07C83.7195 61.38 83.3895 60.43 83.3895 59.22C83.3895 58.45 83.5345 57.77 83.8245 57.18C84.1245 56.58 84.5395 56.12 85.0695 55.8C85.5995 55.47 86.2095 55.305 86.8995 55.305C87.8895 55.305 88.6595 55.625 89.2095 56.265C89.7695 56.905 90.0495 57.795 90.0495 58.935V59.13H84.3495ZM86.8995 56.055C86.2095 56.055 85.6495 56.265 85.2195 56.685C84.7895 57.095 84.5195 57.675 84.4095 58.425H89.1795C89.1195 57.655 88.8945 57.07 88.5045 56.67C88.1145 56.26 87.5795 56.055 86.8995 56.055ZM95.254 55.305C95.504 55.305 95.724 55.325 95.914 55.365L95.869 56.19C95.679 56.15 95.449 56.13 95.179 56.13C94.419 56.13 93.849 56.375 93.469 56.865C93.099 57.345 92.914 57.92 92.914 58.59V63H92.014V57.57C92.014 56.79 91.974 56.095 91.894 55.485H92.764L92.884 56.88C93.074 56.37 93.379 55.98 93.799 55.71C94.229 55.44 94.714 55.305 95.254 55.305ZM103.532 55.485V63.03C103.532 64.12 103.262 64.945 102.722 65.505C102.182 66.065 101.387 66.345 100.337 66.345C99.2171 66.345 98.2421 66.075 97.4121 65.535L97.5921 64.74C98.0821 65.03 98.5321 65.235 98.9421 65.355C99.3521 65.475 99.8221 65.535 100.352 65.535C101.102 65.535 101.667 65.33 102.047 64.92C102.437 64.51 102.632 63.91 102.632 63.12V61.185C102.402 61.695 102.062 62.09 101.612 62.37C101.162 62.64 100.622 62.775 99.9921 62.775C99.3321 62.775 98.7471 62.62 98.2371 62.31C97.7271 61.99 97.3271 61.55 97.0371 60.99C96.7571 60.42 96.6171 59.77 96.6171 59.04C96.6171 58.3 96.7571 57.65 97.0371 57.09C97.3271 56.52 97.7271 56.08 98.2371 55.77C98.7471 55.46 99.3321 55.305 99.9921 55.305C100.622 55.305 101.157 55.435 101.597 55.695C102.047 55.955 102.387 56.335 102.617 56.835V55.485H103.532ZM100.112 61.95C100.892 61.95 101.502 61.69 101.942 61.17C102.392 60.65 102.617 59.94 102.617 59.04C102.617 58.13 102.392 57.415 101.942 56.895C101.502 56.365 100.892 56.1 100.112 56.1C99.3221 56.1 98.7021 56.365 98.2521 56.895C97.8021 57.415 97.5771 58.13 97.5771 59.04C97.5771 59.95 97.8021 60.665 98.2521 61.185C98.7021 61.695 99.3221 61.95 100.112 61.95ZM112.393 55.485L108.853 63.78C108.503 64.6 108.063 65.2 107.533 65.58C107.013 65.97 106.358 66.245 105.568 66.405L105.388 65.685C106.108 65.515 106.648 65.295 107.008 65.025C107.378 64.755 107.688 64.33 107.938 63.75L108.253 63.015L105.043 55.485H106.018L108.733 62.085L111.463 55.485H112.393ZM119.687 65.73C119.127 64.62 118.717 63.515 118.457 62.415C118.197 61.315 118.067 60.18 118.067 59.01C118.067 57.86 118.197 56.735 118.457 55.635C118.717 54.535 119.122 53.43 119.672 52.32H120.482C119.952 53.54 119.572 54.69 119.342 55.77C119.122 56.85 119.012 57.93 119.012 59.01C119.012 60.09 119.122 61.175 119.342 62.265C119.572 63.355 119.952 64.51 120.482 65.73H119.687ZM125.669 63.12C124.829 63.12 124.084 63.01 123.434 62.79C122.794 62.56 122.224 62.205 121.724 61.725L122.114 60.99C122.644 61.46 123.179 61.795 123.719 61.995C124.269 62.195 124.919 62.295 125.669 62.295C126.569 62.295 127.269 62.11 127.769 61.74C128.269 61.37 128.519 60.85 128.519 60.18C128.519 59.79 128.394 59.475 128.144 59.235C127.904 58.985 127.594 58.79 127.214 58.65C126.844 58.51 126.349 58.37 125.729 58.23C124.909 58.05 124.239 57.865 123.719 57.675C123.209 57.475 122.779 57.18 122.429 56.79C122.079 56.4 121.904 55.88 121.904 55.23C121.904 54.63 122.059 54.1 122.369 53.64C122.679 53.18 123.119 52.825 123.689 52.575C124.269 52.325 124.939 52.2 125.699 52.2C126.429 52.2 127.104 52.32 127.724 52.56C128.344 52.79 128.879 53.135 129.329 53.595L128.939 54.33C128.439 53.88 127.929 53.55 127.409 53.34C126.889 53.13 126.319 53.025 125.699 53.025C124.799 53.025 124.094 53.22 123.584 53.61C123.084 54 122.834 54.535 122.834 55.215C122.834 55.805 123.054 56.245 123.494 56.535C123.934 56.825 124.579 57.07 125.429 57.27L125.864 57.375C126.664 57.565 127.299 57.75 127.769 57.93C128.239 58.11 128.639 58.38 128.969 58.74C129.299 59.1 129.464 59.58 129.464 60.18C129.464 60.76 129.309 61.275 128.999 61.725C128.689 62.165 128.244 62.51 127.664 62.76C127.094 63 126.429 63.12 125.669 63.12ZM131.553 52.32H134.988C136.688 52.32 137.998 52.78 138.918 53.7C139.838 54.62 140.298 55.935 140.298 57.645C140.298 59.355 139.833 60.675 138.903 61.605C137.983 62.535 136.678 63 134.988 63H131.553V52.32ZM134.943 62.19C136.393 62.19 137.483 61.81 138.213 61.05C138.943 60.28 139.308 59.145 139.308 57.645C139.308 54.635 137.853 53.13 134.943 53.13H132.483V62.19H134.943ZM150.892 57.525V62.4C150.502 62.61 149.967 62.785 149.287 62.925C148.607 63.055 147.922 63.12 147.232 63.12C146.192 63.12 145.297 62.905 144.547 62.475C143.797 62.035 143.222 61.405 142.822 60.585C142.432 59.765 142.237 58.785 142.237 57.645C142.237 56.515 142.432 55.54 142.822 54.72C143.222 53.9 143.792 53.275 144.532 52.845C145.272 52.415 146.147 52.2 147.157 52.2C148.667 52.2 149.877 52.665 150.787 53.595L150.397 54.33C149.887 53.87 149.372 53.54 148.852 53.34C148.342 53.13 147.772 53.025 147.142 53.025C145.882 53.025 144.907 53.425 144.217 54.225C143.537 55.025 143.197 56.165 143.197 57.645C143.197 59.155 143.542 60.31 144.232 61.11C144.932 61.91 145.937 62.31 147.247 62.31C148.257 62.31 149.192 62.145 150.052 61.815V58.32H147.232V57.525H150.892ZM163.904 52.32V53.01L158.834 63H157.829L162.869 53.13H157.034V52.32H163.904ZM165.473 65.73C165.993 64.51 166.363 63.355 166.583 62.265C166.813 61.165 166.928 60.08 166.928 59.01C166.928 57.93 166.813 56.85 166.583 55.77C166.363 54.69 165.988 53.54 165.458 52.32H166.268C166.818 53.43 167.223 54.535 167.483 55.635C167.743 56.735 167.873 57.86 167.873 59.01C167.873 60.18 167.743 61.315 167.483 62.415C167.223 63.515 166.813 64.62 166.253 65.73H165.473Z" fill="#1F242C"/>
<path d="M302.174 161.12C301.184 161.12 300.324 160.905 299.594 160.475C298.864 160.035 298.304 159.405 297.914 158.585C297.524 157.755 297.329 156.775 297.329 155.645C297.329 154.525 297.524 153.555 297.914 152.735C298.304 151.915 298.864 151.29 299.594 150.86C300.324 150.42 301.184 150.2 302.174 150.2C302.914 150.2 303.589 150.32 304.199 150.56C304.819 150.79 305.354 151.135 305.804 151.595L305.414 152.33C304.904 151.87 304.394 151.54 303.884 151.34C303.374 151.13 302.804 151.025 302.174 151.025C300.944 151.025 299.989 151.43 299.309 152.24C298.629 153.04 298.289 154.175 298.289 155.645C298.289 157.125 298.624 158.27 299.294 159.08C299.974 159.89 300.934 160.295 302.174 160.295C302.804 160.295 303.374 160.195 303.884 159.995C304.394 159.785 304.904 159.45 305.414 158.99L305.804 159.725C305.354 160.185 304.819 160.535 304.199 160.775C303.589 161.005 302.914 161.12 302.174 161.12ZM310.691 161.105C310.001 161.105 309.391 160.945 308.861 160.625C308.341 160.305 307.936 159.85 307.646 159.26C307.366 158.67 307.226 157.985 307.226 157.205C307.226 156.425 307.366 155.74 307.646 155.15C307.936 154.56 308.341 154.105 308.861 153.785C309.391 153.465 310.001 153.305 310.691 153.305C311.371 153.305 311.971 153.465 312.491 153.785C313.011 154.105 313.411 154.56 313.691 155.15C313.981 155.74 314.126 156.425 314.126 157.205C314.126 157.985 313.981 158.67 313.691 159.26C313.411 159.85 313.011 160.305 312.491 160.625C311.971 160.945 311.371 161.105 310.691 161.105ZM310.676 160.295C311.476 160.295 312.091 160.03 312.521 159.5C312.961 158.96 313.181 158.195 313.181 157.205C313.181 156.225 312.961 155.465 312.521 154.925C312.081 154.375 311.471 154.1 310.691 154.1C309.901 154.1 309.286 154.375 308.846 154.925C308.406 155.465 308.186 156.225 308.186 157.205C308.186 158.205 308.401 158.97 308.831 159.5C309.261 160.03 309.876 160.295 310.676 160.295ZM319.624 153.305C321.434 153.305 322.339 154.275 322.339 156.215V161H321.424V156.275C321.424 155.525 321.269 154.975 320.959 154.625C320.659 154.275 320.184 154.1 319.534 154.1C318.784 154.1 318.179 154.33 317.719 154.79C317.259 155.25 317.029 155.87 317.029 156.65V161H316.129V155.57C316.129 154.79 316.089 154.095 316.009 153.485H316.879L316.999 154.865C317.229 154.355 317.574 153.97 318.034 153.71C318.494 153.44 319.024 153.305 319.624 153.305ZM326.076 154.22V158.69C326.076 159.29 326.191 159.705 326.421 159.935C326.651 160.165 326.991 160.28 327.441 160.28C327.721 160.28 327.991 160.235 328.251 160.145V160.97C327.931 161.05 327.606 161.09 327.276 161.09C326.616 161.09 326.096 160.905 325.716 160.535C325.346 160.165 325.161 159.61 325.161 158.87V154.22H323.676V153.485H325.161V151.49L326.076 151.145V153.485H328.296V154.22H326.076ZM333.095 153.305C333.345 153.305 333.565 153.325 333.755 153.365L333.71 154.19C333.52 154.15 333.29 154.13 333.02 154.13C332.26 154.13 331.69 154.375 331.31 154.865C330.94 155.345 330.755 155.92 330.755 156.59V161H329.855V155.57C329.855 154.79 329.815 154.095 329.735 153.485H330.605L330.725 154.88C330.915 154.37 331.22 153.98 331.64 153.71C332.07 153.44 332.555 153.305 333.095 153.305ZM335.084 153.485H335.984V161H335.084V153.485ZM336.164 150.38V151.55H334.949V150.38H336.164ZM342.007 153.305C342.667 153.305 343.252 153.465 343.762 153.785C344.272 154.105 344.662 154.555 344.932 155.135C345.212 155.715 345.352 156.395 345.352 157.175C345.352 157.955 345.212 158.645 344.932 159.245C344.652 159.835 344.257 160.295 343.747 160.625C343.247 160.945 342.667 161.105 342.007 161.105C341.387 161.105 340.852 160.97 340.402 160.7C339.962 160.43 339.632 160.04 339.412 159.53V161H338.497V149.96H339.397V154.895C339.617 154.375 339.952 153.98 340.402 153.71C340.852 153.44 341.387 153.305 342.007 153.305ZM341.902 160.295C342.682 160.295 343.292 160.02 343.732 159.47C344.172 158.92 344.392 158.155 344.392 157.175C344.392 156.205 344.172 155.45 343.732 154.91C343.292 154.37 342.677 154.1 341.887 154.1C341.097 154.1 340.487 154.37 340.057 154.91C339.627 155.45 339.412 156.215 339.412 157.205C339.412 158.195 339.627 158.96 340.057 159.5C340.487 160.03 341.102 160.295 341.902 160.295ZM353.405 153.485V161H352.52V159.635C352.28 160.115 351.94 160.48 351.5 160.73C351.06 160.98 350.555 161.105 349.985 161.105C349.105 161.105 348.44 160.86 347.99 160.37C347.54 159.88 347.315 159.155 347.315 158.195V153.485H348.215V158.135C348.215 158.875 348.365 159.42 348.665 159.77C348.965 160.12 349.43 160.295 350.06 160.295C350.8 160.295 351.39 160.065 351.83 159.605C352.27 159.135 352.49 158.515 352.49 157.745V153.485H353.405ZM357.175 154.22V158.69C357.175 159.29 357.29 159.705 357.52 159.935C357.75 160.165 358.09 160.28 358.54 160.28C358.82 160.28 359.09 160.235 359.35 160.145V160.97C359.03 161.05 358.705 161.09 358.375 161.09C357.715 161.09 357.195 160.905 356.815 160.535C356.445 160.165 356.26 159.61 356.26 158.87V154.22H354.775V153.485H356.26V151.49L357.175 151.145V153.485H359.395V154.22H357.175ZM360.953 153.485H361.853V161H360.953V153.485ZM362.033 150.38V151.55H360.818V150.38H362.033ZM367.352 161.105C366.662 161.105 366.052 160.945 365.522 160.625C365.002 160.305 364.597 159.85 364.307 159.26C364.027 158.67 363.887 157.985 363.887 157.205C363.887 156.425 364.027 155.74 364.307 155.15C364.597 154.56 365.002 154.105 365.522 153.785C366.052 153.465 366.662 153.305 367.352 153.305C368.032 153.305 368.632 153.465 369.152 153.785C369.672 154.105 370.072 154.56 370.352 155.15C370.642 155.74 370.787 156.425 370.787 157.205C370.787 157.985 370.642 158.67 370.352 159.26C370.072 159.85 369.672 160.305 369.152 160.625C368.632 160.945 368.032 161.105 367.352 161.105ZM367.337 160.295C368.137 160.295 368.752 160.03 369.182 159.5C369.622 158.96 369.842 158.195 369.842 157.205C369.842 156.225 369.622 155.465 369.182 154.925C368.742 154.375 368.132 154.1 367.352 154.1C366.562 154.1 365.947 154.375 365.507 154.925C365.067 155.465 364.847 156.225 364.847 157.205C364.847 158.205 365.062 158.97 365.492 159.5C365.922 160.03 366.537 160.295 367.337 160.295ZM376.284 153.305C378.094 153.305 378.999 154.275 378.999 156.215V161H378.084V156.275C378.084 155.525 377.929 154.975 377.619 154.625C377.319 154.275 376.844 154.1 376.194 154.1C375.444 154.1 374.839 154.33 374.379 154.79C373.919 155.25 373.689 155.87 373.689 156.65V161H372.789V155.57C372.789 154.79 372.749 154.095 372.669 153.485H373.539L373.659 154.865C373.889 154.355 374.234 153.97 374.694 153.71C375.154 153.44 375.684 153.305 376.284 153.305ZM386.56 154.22V158.69C386.56 159.29 386.675 159.705 386.905 159.935C387.135 160.165 387.475 160.28 387.925 160.28C388.205 160.28 388.475 160.235 388.735 160.145V160.97C388.415 161.05 388.09 161.09 387.76 161.09C387.1 161.09 386.58 160.905 386.2 160.535C385.83 160.165 385.645 159.61 385.645 158.87V154.22H384.16V153.485H385.645V151.49L386.56 151.145V153.485H388.78V154.22H386.56ZM393.323 161.105C392.633 161.105 392.023 160.945 391.493 160.625C390.973 160.305 390.568 159.85 390.278 159.26C389.998 158.67 389.858 157.985 389.858 157.205C389.858 156.425 389.998 155.74 390.278 155.15C390.568 154.56 390.973 154.105 391.493 153.785C392.023 153.465 392.633 153.305 393.323 153.305C394.003 153.305 394.603 153.465 395.123 153.785C395.643 154.105 396.043 154.56 396.323 155.15C396.613 155.74 396.758 156.425 396.758 157.205C396.758 157.985 396.613 158.67 396.323 159.26C396.043 159.85 395.643 160.305 395.123 160.625C394.603 160.945 394.003 161.105 393.323 161.105ZM393.308 160.295C394.108 160.295 394.723 160.03 395.153 159.5C395.593 158.96 395.813 158.195 395.813 157.205C395.813 156.225 395.593 155.465 395.153 154.925C394.713 154.375 394.103 154.1 393.323 154.1C392.533 154.1 391.918 154.375 391.478 154.925C391.038 155.465 390.818 156.225 390.818 157.205C390.818 158.205 391.033 158.97 391.463 159.5C391.893 160.03 392.508 160.295 393.308 160.295ZM405.029 161.105C403.809 161.105 402.844 160.77 402.134 160.1L402.464 159.395C402.864 159.725 403.264 159.96 403.664 160.1C404.074 160.24 404.544 160.31 405.074 160.31C405.694 160.31 406.164 160.205 406.484 159.995C406.814 159.775 406.979 159.46 406.979 159.05C406.979 158.71 406.869 158.445 406.649 158.255C406.439 158.055 406.089 157.895 405.599 157.775L404.324 157.49C403.724 157.35 403.249 157.1 402.899 156.74C402.559 156.38 402.389 155.96 402.389 155.48C402.389 154.82 402.639 154.295 403.139 153.905C403.649 153.505 404.324 153.305 405.164 153.305C405.694 153.305 406.184 153.39 406.634 153.56C407.094 153.73 407.474 153.975 407.774 154.295L407.429 155C406.739 154.4 405.984 154.1 405.164 154.1C404.584 154.1 404.134 154.215 403.814 154.445C403.494 154.675 403.334 154.995 403.334 155.405C403.334 155.745 403.434 156.02 403.634 156.23C403.844 156.44 404.164 156.595 404.594 156.695L405.884 157.01C407.234 157.31 407.909 157.975 407.909 159.005C407.909 159.635 407.649 160.145 407.129 160.535C406.609 160.915 405.909 161.105 405.029 161.105ZM416.041 153.485V161H415.156V159.635C414.916 160.115 414.576 160.48 414.136 160.73C413.696 160.98 413.191 161.105 412.621 161.105C411.741 161.105 411.076 160.86 410.626 160.37C410.176 159.88 409.951 159.155 409.951 158.195V153.485H410.851V158.135C410.851 158.875 411.001 159.42 411.301 159.77C411.601 160.12 412.066 160.295 412.696 160.295C413.436 160.295 414.026 160.065 414.466 159.605C414.906 159.135 415.126 158.515 415.126 157.745V153.485H416.041ZM420.982 161.105C419.762 161.105 418.797 160.77 418.087 160.1L418.417 159.395C418.817 159.725 419.217 159.96 419.617 160.1C420.027 160.24 420.497 160.31 421.027 160.31C421.647 160.31 422.117 160.205 422.437 159.995C422.767 159.775 422.932 159.46 422.932 159.05C422.932 158.71 422.822 158.445 422.602 158.255C422.392 158.055 422.042 157.895 421.552 157.775L420.277 157.49C419.677 157.35 419.202 157.1 418.852 156.74C418.512 156.38 418.342 155.96 418.342 155.48C418.342 154.82 418.592 154.295 419.092 153.905C419.602 153.505 420.277 153.305 421.117 153.305C421.647 153.305 422.137 153.39 422.587 153.56C423.047 153.73 423.427 153.975 423.727 154.295L423.382 155C422.692 154.4 421.937 154.1 421.117 154.1C420.537 154.1 420.087 154.215 419.767 154.445C419.447 154.675 419.287 154.995 419.287 155.405C419.287 155.745 419.387 156.02 419.587 156.23C419.797 156.44 420.117 156.595 420.547 156.695L421.837 157.01C423.187 157.31 423.862 157.975 423.862 159.005C423.862 159.635 423.602 160.145 423.082 160.535C422.562 160.915 421.862 161.105 420.982 161.105ZM427.15 154.22V158.69C427.15 159.29 427.265 159.705 427.495 159.935C427.725 160.165 428.065 160.28 428.515 160.28C428.795 160.28 429.065 160.235 429.325 160.145V160.97C429.005 161.05 428.68 161.09 428.35 161.09C427.69 161.09 427.17 160.905 426.79 160.535C426.42 160.165 426.235 159.61 426.235 158.87V154.22H424.75V153.485H426.235V151.49L427.15 151.145V153.485H429.37V154.22H427.15ZM437.304 153.485V161H436.389V159.56C436.169 160.06 435.834 160.445 435.384 160.715C434.944 160.975 434.414 161.105 433.794 161.105C433.124 161.105 432.534 160.95 432.024 160.64C431.524 160.32 431.134 159.87 430.854 159.29C430.584 158.7 430.449 158.015 430.449 157.235C430.449 156.455 430.589 155.77 430.869 155.18C431.149 154.58 431.539 154.12 432.039 153.8C432.549 153.47 433.134 153.305 433.794 153.305C434.404 153.305 434.929 153.435 435.369 153.695C435.819 153.955 436.159 154.335 436.389 154.835V153.485H437.304ZM433.929 160.295C434.709 160.295 435.314 160.025 435.744 159.485C436.174 158.945 436.389 158.185 436.389 157.205C436.389 156.215 436.174 155.45 435.744 154.91C435.314 154.37 434.704 154.1 433.914 154.1C433.124 154.1 432.509 154.38 432.069 154.94C431.629 155.49 431.409 156.255 431.409 157.235C431.409 158.205 431.629 158.96 432.069 159.5C432.509 160.03 433.129 160.295 433.929 160.295ZM439.791 153.485H440.691V161H439.791V153.485ZM440.871 150.38V151.55H439.656V150.38H440.871ZM446.699 153.305C448.509 153.305 449.414 154.275 449.414 156.215V161H448.499V156.275C448.499 155.525 448.344 154.975 448.034 154.625C447.734 154.275 447.259 154.1 446.609 154.1C445.859 154.1 445.254 154.33 444.794 154.79C444.334 155.25 444.104 155.87 444.104 156.65V161H443.204V155.57C443.204 154.79 443.164 154.095 443.084 153.485H443.954L444.074 154.865C444.304 154.355 444.649 153.97 445.109 153.71C445.569 153.44 446.099 153.305 446.699 153.305ZM458.251 153.485V161H457.336V159.56C457.116 160.06 456.781 160.445 456.331 160.715C455.891 160.975 455.361 161.105 454.741 161.105C454.071 161.105 453.481 160.95 452.971 160.64C452.471 160.32 452.081 159.87 451.801 159.29C451.531 158.7 451.396 158.015 451.396 157.235C451.396 156.455 451.536 155.77 451.816 155.18C452.096 154.58 452.486 154.12 452.986 153.8C453.496 153.47 454.081 153.305 454.741 153.305C455.351 153.305 455.876 153.435 456.316 153.695C456.766 153.955 457.106 154.335 457.336 154.835V153.485H458.251ZM454.876 160.295C455.656 160.295 456.261 160.025 456.691 159.485C457.121 158.945 457.336 158.185 457.336 157.205C457.336 156.215 457.121 155.45 456.691 154.91C456.261 154.37 455.651 154.1 454.861 154.1C454.071 154.1 453.456 154.38 453.016 154.94C452.576 155.49 452.356 156.255 452.356 157.235C452.356 158.205 452.576 158.96 453.016 159.5C453.456 160.03 454.076 160.295 454.876 160.295ZM464.249 153.305C464.909 153.305 465.494 153.465 466.004 153.785C466.514 154.105 466.904 154.555 467.174 155.135C467.454 155.715 467.594 156.395 467.594 157.175C467.594 157.955 467.454 158.645 467.174 159.245C466.894 159.835 466.499 160.295 465.989 160.625C465.489 160.945 464.909 161.105 464.249 161.105C463.629 161.105 463.094 160.97 462.644 160.7C462.204 160.43 461.874 160.04 461.654 159.53V161H460.739V149.96H461.639V154.895C461.859 154.375 462.194 153.98 462.644 153.71C463.094 153.44 463.629 153.305 464.249 153.305ZM464.144 160.295C464.924 160.295 465.534 160.02 465.974 159.47C466.414 158.92 466.634 158.155 466.634 157.175C466.634 156.205 466.414 155.45 465.974 154.91C465.534 154.37 464.919 154.1 464.129 154.1C463.339 154.1 462.729 154.37 462.299 154.91C461.869 155.45 461.654 156.215 461.654 157.205C461.654 158.195 461.869 158.96 462.299 159.5C462.729 160.03 463.344 160.295 464.144 160.295ZM469.601 153.485H470.501V161H469.601V153.485ZM470.681 150.38V151.55H469.466V150.38H470.681ZM473.014 149.96H473.914V161H473.014V149.96ZM476.427 153.485H477.327V161H476.427V153.485ZM477.507 150.38V151.55H476.292V150.38H477.507ZM481.115 154.22V158.69C481.115 159.29 481.23 159.705 481.46 159.935C481.69 160.165 482.03 160.28 482.48 160.28C482.76 160.28 483.03 160.235 483.29 160.145V160.97C482.97 161.05 482.645 161.09 482.315 161.09C481.655 161.09 481.135 160.905 480.755 160.535C480.385 160.165 480.2 159.61 480.2 158.87V154.22H478.715V153.485H480.2V151.49L481.115 151.145V153.485H483.335V154.22H481.115ZM491.342 153.485L487.802 161.78C487.452 162.6 487.012 163.2 486.482 163.58C485.962 163.97 485.307 164.245 484.517 164.405L484.337 163.685C485.057 163.515 485.597 163.295 485.957 163.025C486.327 162.755 486.637 162.33 486.887 161.75L487.202 161.015L483.992 153.485H484.967L487.682 160.085L490.412 153.485H491.342ZM306.509 180.105C305.819 180.105 305.209 179.945 304.679 179.625C304.159 179.305 303.754 178.85 303.464 178.26C303.184 177.67 303.044 176.985 303.044 176.205C303.044 175.425 303.184 174.74 303.464 174.15C303.754 173.56 304.159 173.105 304.679 172.785C305.209 172.465 305.819 172.305 306.509 172.305C307.189 172.305 307.789 172.465 308.309 172.785C308.829 173.105 309.229 173.56 309.509 174.15C309.799 174.74 309.944 175.425 309.944 176.205C309.944 176.985 309.799 177.67 309.509 178.26C309.229 178.85 308.829 179.305 308.309 179.625C307.789 179.945 307.189 180.105 306.509 180.105ZM306.494 179.295C307.294 179.295 307.909 179.03 308.339 178.5C308.779 177.96 308.999 177.195 308.999 176.205C308.999 175.225 308.779 174.465 308.339 173.925C307.899 173.375 307.289 173.1 306.509 173.1C305.719 173.1 305.104 173.375 304.664 173.925C304.224 174.465 304.004 175.225 304.004 176.205C304.004 177.205 304.219 177.97 304.649 178.5C305.079 179.03 305.694 179.295 306.494 179.295ZM314.542 169.725C314.112 169.725 313.782 169.84 313.552 170.07C313.322 170.3 313.207 170.71 313.207 171.3V172.485H315.142V173.22H313.207V180H312.292V173.22H310.822V172.485H312.292V171.135C312.292 170.385 312.477 169.825 312.847 169.455C313.217 169.085 313.727 168.9 314.377 168.9C314.677 168.9 314.987 168.94 315.307 169.02V169.845C315.037 169.765 314.782 169.725 314.542 169.725ZM323.679 180.105C322.969 180.105 322.349 179.945 321.819 179.625C321.289 179.305 320.879 178.855 320.589 178.275C320.299 177.685 320.154 177.005 320.154 176.235C320.154 175.455 320.299 174.77 320.589 174.18C320.879 173.58 321.294 173.12 321.834 172.8C322.374 172.47 322.999 172.305 323.709 172.305C324.219 172.305 324.704 172.395 325.164 172.575C325.634 172.745 326.019 172.985 326.319 173.295L325.959 174.015C325.569 173.695 325.194 173.465 324.834 173.325C324.484 173.175 324.119 173.1 323.739 173.1C322.929 173.1 322.289 173.38 321.819 173.94C321.349 174.49 321.114 175.255 321.114 176.235C321.114 177.195 321.344 177.945 321.804 178.485C322.274 179.025 322.919 179.295 323.739 179.295C324.119 179.295 324.484 179.225 324.834 179.085C325.194 178.935 325.569 178.705 325.959 178.395L326.319 179.1C325.999 179.41 325.599 179.655 325.119 179.835C324.649 180.015 324.169 180.105 323.679 180.105ZM327.987 172.485H328.887V180H327.987V172.485ZM329.067 169.38V170.55H327.852V169.38H329.067ZM332.675 173.22V177.69C332.675 178.29 332.79 178.705 333.02 178.935C333.25 179.165 333.59 179.28 334.04 179.28C334.32 179.28 334.59 179.235 334.85 179.145V179.97C334.53 180.05 334.205 180.09 333.875 180.09C333.215 180.09 332.695 179.905 332.315 179.535C331.945 179.165 331.76 178.61 331.76 177.87V173.22H330.275V172.485H331.76V170.49L332.675 170.145V172.485H334.895V173.22H332.675ZM336.454 172.485H337.354V180H336.454V172.485ZM337.534 169.38V170.55H336.319V169.38H337.534ZM340.347 176.13V176.175C340.347 177.185 340.577 177.96 341.037 178.5C341.507 179.03 342.187 179.295 343.077 179.295C343.977 179.295 344.802 178.985 345.552 178.365L345.912 179.085C345.582 179.395 345.162 179.645 344.652 179.835C344.142 180.015 343.617 180.105 343.077 180.105C341.937 180.105 341.037 179.76 340.377 179.07C339.717 178.38 339.387 177.43 339.387 176.22C339.387 175.45 339.532 174.77 339.822 174.18C340.122 173.58 340.537 173.12 341.067 172.8C341.597 172.47 342.207 172.305 342.897 172.305C343.887 172.305 344.657 172.625 345.207 173.265C345.767 173.905 346.047 174.795 346.047 175.935V176.13H340.347ZM342.897 173.055C342.207 173.055 341.647 173.265 341.217 173.685C340.787 174.095 340.517 174.675 340.407 175.425H345.177C345.117 174.655 344.892 174.07 344.502 173.67C344.112 173.26 343.577 173.055 342.897 173.055ZM350.457 180.105C349.237 180.105 348.272 179.77 347.562 179.1L347.892 178.395C348.292 178.725 348.692 178.96 349.092 179.1C349.502 179.24 349.972 179.31 350.502 179.31C351.122 179.31 351.592 179.205 351.912 178.995C352.242 178.775 352.407 178.46 352.407 178.05C352.407 177.71 352.297 177.445 352.077 177.255C351.867 177.055 351.517 176.895 351.027 176.775L349.752 176.49C349.152 176.35 348.677 176.1 348.327 175.74C347.987 175.38 347.817 174.96 347.817 174.48C347.817 173.82 348.067 173.295 348.567 172.905C349.077 172.505 349.752 172.305 350.592 172.305C351.122 172.305 351.612 172.39 352.062 172.56C352.522 172.73 352.902 172.975 353.202 173.295L352.857 174C352.167 173.4 351.412 173.1 350.592 173.1C350.012 173.1 349.562 173.215 349.242 173.445C348.922 173.675 348.762 173.995 348.762 174.405C348.762 174.745 348.862 175.02 349.062 175.23C349.272 175.44 349.592 175.595 350.022 175.695L351.312 176.01C352.662 176.31 353.337 176.975 353.337 178.005C353.337 178.635 353.077 179.145 352.557 179.535C352.037 179.915 351.337 180.105 350.457 180.105ZM365.622 172.485V180H364.707V178.56C364.487 179.06 364.152 179.445 363.702 179.715C363.262 179.975 362.732 180.105 362.112 180.105C361.442 180.105 360.852 179.95 360.342 179.64C359.842 179.32 359.452 178.87 359.172 178.29C358.902 177.7 358.767 177.015 358.767 176.235C358.767 175.455 358.907 174.77 359.187 174.18C359.467 173.58 359.857 173.12 360.357 172.8C360.867 172.47 361.452 172.305 362.112 172.305C362.722 172.305 363.247 172.435 363.687 172.695C364.137 172.955 364.477 173.335 364.707 173.835V172.485H365.622ZM362.247 179.295C363.027 179.295 363.632 179.025 364.062 178.485C364.492 177.945 364.707 177.185 364.707 176.205C364.707 175.215 364.492 174.45 364.062 173.91C363.632 173.37 363.022 173.1 362.232 173.1C361.442 173.1 360.827 173.38 360.387 173.94C359.947 174.49 359.727 175.255 359.727 176.235C359.727 177.205 359.947 177.96 360.387 178.5C360.827 179.03 361.447 179.295 362.247 179.295ZM371.604 172.305C373.414 172.305 374.319 173.275 374.319 175.215V180H373.404V175.275C373.404 174.525 373.249 173.975 372.939 173.625C372.639 173.275 372.164 173.1 371.514 173.1C370.764 173.1 370.159 173.33 369.699 173.79C369.239 174.25 369.009 174.87 369.009 175.65V180H368.109V174.57C368.109 173.79 368.069 173.095 367.989 172.485H368.859L368.979 173.865C369.209 173.355 369.554 172.97 370.014 172.71C370.474 172.44 371.004 172.305 371.604 172.305ZM383.156 168.96V180H382.241V178.56C382.021 179.06 381.686 179.445 381.236 179.715C380.796 179.975 380.266 180.105 379.646 180.105C378.986 180.105 378.401 179.945 377.891 179.625C377.391 179.295 377.001 178.835 376.721 178.245C376.441 177.645 376.301 176.955 376.301 176.175C376.301 175.395 376.436 174.715 376.706 174.135C376.986 173.545 377.376 173.095 377.876 172.785C378.386 172.465 378.976 172.305 379.646 172.305C380.256 172.305 380.781 172.435 381.221 172.695C381.671 172.955 382.011 173.335 382.241 173.835V168.96H383.156ZM379.766 179.295C380.556 179.295 381.166 179.025 381.596 178.485C382.026 177.945 382.241 177.185 382.241 176.205C382.241 175.225 382.026 174.465 381.596 173.925C381.166 173.375 380.561 173.1 379.781 173.1C378.981 173.1 378.361 173.37 377.921 173.91C377.481 174.45 377.261 175.205 377.261 176.175C377.261 177.155 377.481 177.92 377.921 178.47C378.361 179.02 378.976 179.295 379.766 179.295ZM392.512 180.105C391.802 180.105 391.182 179.945 390.652 179.625C390.122 179.305 389.712 178.855 389.422 178.275C389.132 177.685 388.987 177.005 388.987 176.235C388.987 175.455 389.132 174.77 389.422 174.18C389.712 173.58 390.127 173.12 390.667 172.8C391.207 172.47 391.832 172.305 392.542 172.305C393.052 172.305 393.537 172.395 393.997 172.575C394.467 172.745 394.852 172.985 395.152 173.295L394.792 174.015C394.402 173.695 394.027 173.465 393.667 173.325C393.317 173.175 392.952 173.1 392.572 173.1C391.762 173.1 391.122 173.38 390.652 173.94C390.182 174.49 389.947 175.255 389.947 176.235C389.947 177.195 390.177 177.945 390.637 178.485C391.107 179.025 391.752 179.295 392.572 179.295C392.952 179.295 393.317 179.225 393.667 179.085C394.027 178.935 394.402 178.705 394.792 178.395L395.152 179.1C394.832 179.41 394.432 179.655 393.952 179.835C393.482 180.015 393.002 180.105 392.512 180.105ZM399.805 180.105C399.115 180.105 398.505 179.945 397.975 179.625C397.455 179.305 397.05 178.85 396.76 178.26C396.48 177.67 396.34 176.985 396.34 176.205C396.34 175.425 396.48 174.74 396.76 174.15C397.05 173.56 397.455 173.105 397.975 172.785C398.505 172.465 399.115 172.305 399.805 172.305C400.485 172.305 401.085 172.465 401.605 172.785C402.125 173.105 402.525 173.56 402.805 174.15C403.095 174.74 403.24 175.425 403.24 176.205C403.24 176.985 403.095 177.67 402.805 178.26C402.525 178.85 402.125 179.305 401.605 179.625C401.085 179.945 400.485 180.105 399.805 180.105ZM399.79 179.295C400.59 179.295 401.205 179.03 401.635 178.5C402.075 177.96 402.295 177.195 402.295 176.205C402.295 175.225 402.075 174.465 401.635 173.925C401.195 173.375 400.585 173.1 399.805 173.1C399.015 173.1 398.4 173.375 397.96 173.925C397.52 174.465 397.3 175.225 397.3 176.205C397.3 177.205 397.515 177.97 397.945 178.5C398.375 179.03 398.99 179.295 399.79 179.295ZM413.343 172.305C415.003 172.305 415.833 173.275 415.833 175.215V180H414.918V175.275C414.918 174.515 414.783 173.965 414.513 173.625C414.243 173.275 413.813 173.1 413.223 173.1C412.533 173.1 411.988 173.33 411.588 173.79C411.198 174.25 411.003 174.875 411.003 175.665V180H410.088V175.275C410.088 174.515 409.948 173.965 409.668 173.625C409.398 173.275 408.968 173.1 408.378 173.1C407.698 173.1 407.153 173.33 406.743 173.79C406.343 174.25 406.143 174.875 406.143 175.665V180H405.243V174.57C405.243 173.79 405.203 173.095 405.123 172.485H405.993L406.113 173.835C406.323 173.335 406.633 172.955 407.043 172.695C407.463 172.435 407.948 172.305 408.498 172.305C409.708 172.305 410.483 172.795 410.823 173.775C411.033 173.315 411.358 172.955 411.798 172.695C412.248 172.435 412.763 172.305 413.343 172.305ZM426.38 172.305C428.04 172.305 428.87 173.275 428.87 175.215V180H427.955V175.275C427.955 174.515 427.82 173.965 427.55 173.625C427.28 173.275 426.85 173.1 426.26 173.1C425.57 173.1 425.025 173.33 424.625 173.79C424.235 174.25 424.04 174.875 424.04 175.665V180H423.125V175.275C423.125 174.515 422.985 173.965 422.705 173.625C422.435 173.275 422.005 173.1 421.415 173.1C420.735 173.1 420.19 173.33 419.78 173.79C419.38 174.25 419.18 174.875 419.18 175.665V180H418.28V174.57C418.28 173.79 418.24 173.095 418.16 172.485H419.03L419.15 173.835C419.36 173.335 419.67 172.955 420.08 172.695C420.5 172.435 420.985 172.305 421.535 172.305C422.745 172.305 423.52 172.795 423.86 173.775C424.07 173.315 424.395 172.955 424.835 172.695C425.285 172.435 425.8 172.305 426.38 172.305ZM437.362 172.485V180H436.477V178.635C436.237 179.115 435.897 179.48 435.457 179.73C435.017 179.98 434.512 180.105 433.942 180.105C433.062 180.105 432.397 179.86 431.947 179.37C431.497 178.88 431.272 178.155 431.272 177.195V172.485H432.172V177.135C432.172 177.875 432.322 178.42 432.622 178.77C432.922 179.12 433.387 179.295 434.017 179.295C434.757 179.295 435.347 179.065 435.787 178.605C436.227 178.135 436.447 177.515 436.447 176.745V172.485H437.362ZM443.352 172.305C445.162 172.305 446.067 173.275 446.067 175.215V180H445.152V175.275C445.152 174.525 444.997 173.975 444.687 173.625C444.387 173.275 443.912 173.1 443.262 173.1C442.512 173.1 441.907 173.33 441.447 173.79C440.987 174.25 440.757 174.87 440.757 175.65V180H439.857V174.57C439.857 173.79 439.817 173.095 439.737 172.485H440.607L440.727 173.865C440.957 173.355 441.302 172.97 441.762 172.71C442.222 172.44 442.752 172.305 443.352 172.305ZM448.529 172.485H449.429V180H448.529V172.485ZM449.609 169.38V170.55H448.394V169.38H449.609ZM453.217 173.22V177.69C453.217 178.29 453.332 178.705 453.562 178.935C453.792 179.165 454.132 179.28 454.582 179.28C454.862 179.28 455.132 179.235 455.392 179.145V179.97C455.072 180.05 454.747 180.09 454.417 180.09C453.757 180.09 453.237 179.905 452.857 179.535C452.487 179.165 452.302 178.61 452.302 177.87V173.22H450.817V172.485H452.302V170.49L453.217 170.145V172.485H455.437V173.22H453.217ZM456.996 172.485H457.896V180H456.996V172.485ZM458.076 169.38V170.55H456.861V169.38H458.076ZM460.889 176.13V176.175C460.889 177.185 461.119 177.96 461.579 178.5C462.049 179.03 462.729 179.295 463.619 179.295C464.519 179.295 465.344 178.985 466.094 178.365L466.454 179.085C466.124 179.395 465.704 179.645 465.194 179.835C464.684 180.015 464.159 180.105 463.619 180.105C462.479 180.105 461.579 179.76 460.919 179.07C460.259 178.38 459.929 177.43 459.929 176.22C459.929 175.45 460.074 174.77 460.364 174.18C460.664 173.58 461.079 173.12 461.609 172.8C462.139 172.47 462.749 172.305 463.439 172.305C464.429 172.305 465.199 172.625 465.749 173.265C466.309 173.905 466.589 174.795 466.589 175.935V176.13H460.889ZM463.439 173.055C462.749 173.055 462.189 173.265 461.759 173.685C461.329 174.095 461.059 174.675 460.949 175.425H465.719C465.659 174.655 465.434 174.07 465.044 173.67C464.654 173.26 464.119 173.055 463.439 173.055ZM470.999 180.105C469.779 180.105 468.814 179.77 468.104 179.1L468.434 178.395C468.834 178.725 469.234 178.96 469.634 179.1C470.044 179.24 470.514 179.31 471.044 179.31C471.664 179.31 472.134 179.205 472.454 178.995C472.784 178.775 472.949 178.46 472.949 178.05C472.949 177.71 472.839 177.445 472.619 177.255C472.409 177.055 472.059 176.895 471.569 176.775L470.294 176.49C469.694 176.35 469.219 176.1 468.869 175.74C468.529 175.38 468.359 174.96 468.359 174.48C468.359 173.82 468.609 173.295 469.109 172.905C469.619 172.505 470.294 172.305 471.134 172.305C471.664 172.305 472.154 172.39 472.604 172.56C473.064 172.73 473.444 172.975 473.744 173.295L473.399 174C472.709 173.4 471.954 173.1 471.134 173.1C470.554 173.1 470.104 173.215 469.784 173.445C469.464 173.675 469.304 173.995 469.304 174.405C469.304 174.745 469.404 175.02 469.604 175.23C469.814 175.44 470.134 175.595 470.564 175.695L471.854 176.01C473.204 176.31 473.879 176.975 473.879 178.005C473.879 178.635 473.619 179.145 473.099 179.535C472.579 179.915 471.879 180.105 470.999 180.105ZM360.721 201.73C360.161 200.62 359.751 199.515 359.491 198.415C359.231 197.315 359.101 196.18 359.101 195.01C359.101 193.86 359.231 192.735 359.491 191.635C359.751 190.535 360.156 189.43 360.706 188.32H361.516C360.986 189.54 360.606 190.69 360.376 191.77C360.156 192.85 360.046 193.93 360.046 195.01C360.046 196.09 360.156 197.175 360.376 198.265C360.606 199.355 360.986 200.51 361.516 201.73H360.721ZM366.703 199.12C365.863 199.12 365.118 199.01 364.468 198.79C363.828 198.56 363.258 198.205 362.758 197.725L363.148 196.99C363.678 197.46 364.213 197.795 364.753 197.995C365.303 198.195 365.953 198.295 366.703 198.295C367.603 198.295 368.303 198.11 368.803 197.74C369.303 197.37 369.553 196.85 369.553 196.18C369.553 195.79 369.428 195.475 369.178 195.235C368.938 194.985 368.628 194.79 368.248 194.65C367.878 194.51 367.383 194.37 366.763 194.23C365.943 194.05 365.273 193.865 364.753 193.675C364.243 193.475 363.813 193.18 363.463 192.79C363.113 192.4 362.938 191.88 362.938 191.23C362.938 190.63 363.093 190.1 363.403 189.64C363.713 189.18 364.153 188.825 364.723 188.575C365.303 188.325 365.973 188.2 366.733 188.2C367.463 188.2 368.138 188.32 368.758 188.56C369.378 188.79 369.913 189.135 370.363 189.595L369.973 190.33C369.473 189.88 368.963 189.55 368.443 189.34C367.923 189.13 367.353 189.025 366.733 189.025C365.833 189.025 365.128 189.22 364.618 189.61C364.118 190 363.868 190.535 363.868 191.215C363.868 191.805 364.088 192.245 364.528 192.535C364.968 192.825 365.613 193.07 366.463 193.27L366.898 193.375C367.698 193.565 368.333 193.75 368.803 193.93C369.273 194.11 369.673 194.38 370.003 194.74C370.333 195.1 370.498 195.58 370.498 196.18C370.498 196.76 370.343 197.275 370.033 197.725C369.723 198.165 369.278 198.51 368.698 198.76C368.128 199 367.463 199.12 366.703 199.12ZM372.588 188.32H376.023C377.723 188.32 379.033 188.78 379.953 189.7C380.873 190.62 381.333 191.935 381.333 193.645C381.333 195.355 380.868 196.675 379.938 197.605C379.018 198.535 377.713 199 376.023 199H372.588V188.32ZM375.978 198.19C377.428 198.19 378.518 197.81 379.248 197.05C379.978 196.28 380.343 195.145 380.343 193.645C380.343 190.635 378.888 189.13 375.978 189.13H373.518V198.19H375.978ZM391.926 193.525V198.4C391.536 198.61 391.001 198.785 390.321 198.925C389.641 199.055 388.956 199.12 388.266 199.12C387.226 199.12 386.331 198.905 385.581 198.475C384.831 198.035 384.256 197.405 383.856 196.585C383.466 195.765 383.271 194.785 383.271 193.645C383.271 192.515 383.466 191.54 383.856 190.72C384.256 189.9 384.826 189.275 385.566 188.845C386.306 188.415 387.181 188.2 388.191 188.2C389.701 188.2 390.911 188.665 391.821 189.595L391.431 190.33C390.921 189.87 390.406 189.54 389.886 189.34C389.376 189.13 388.806 189.025 388.176 189.025C386.916 189.025 385.941 189.425 385.251 190.225C384.571 191.025 384.231 192.165 384.231 193.645C384.231 195.155 384.576 196.31 385.266 197.11C385.966 197.91 386.971 198.31 388.281 198.31C389.291 198.31 390.226 198.145 391.086 197.815V194.32H388.266V193.525H391.926ZM404.683 198.19V199H399.028V198.19H401.398V189.55L399.193 190.975V190.03L401.803 188.32H402.328V198.19H404.683ZM413.678 198.19V199H408.023V198.19H410.393V189.55L408.188 190.975V190.03L410.798 188.32H411.323V198.19H413.678ZM415.502 201.73C416.022 200.51 416.392 199.355 416.612 198.265C416.842 197.165 416.957 196.08 416.957 195.01C416.957 193.93 416.842 192.85 416.612 191.77C416.392 190.69 416.017 189.54 415.487 188.32H416.297C416.847 189.43 417.252 190.535 417.512 191.635C417.772 192.735 417.902 193.86 417.902 195.01C417.902 196.18 417.772 197.315 417.512 198.415C417.252 199.515 416.842 200.62 416.282 201.73H415.502Z" fill="#1F242C"/>
<path d="M18.7814 280.13H14.9564V279.32H23.5364V280.13H19.7114V290H18.7814V280.13ZM30.1893 282.485V290H29.2743V288.56C29.0543 289.06 28.7193 289.445 28.2693 289.715C27.8293 289.975 27.2993 290.105 26.6793 290.105C26.0093 290.105 25.4193 289.95 24.9093 289.64C24.4093 289.32 24.0193 288.87 23.7393 288.29C23.4693 287.7 23.3343 287.015 23.3343 286.235C23.3343 285.455 23.4743 284.77 23.7543 284.18C24.0343 283.58 24.4243 283.12 24.9243 282.8C25.4343 282.47 26.0193 282.305 26.6793 282.305C27.2893 282.305 27.8143 282.435 28.2543 282.695C28.7043 282.955 29.0443 283.335 29.2743 283.835V282.485H30.1893ZM26.8143 289.295C27.5943 289.295 28.1993 289.025 28.6293 288.485C29.0593 287.945 29.2743 287.185 29.2743 286.205C29.2743 285.215 29.0593 284.45 28.6293 283.91C28.1993 283.37 27.5893 283.1 26.7993 283.1C26.0093 283.1 25.3943 283.38 24.9543 283.94C24.5143 284.49 24.2943 285.255 24.2943 286.235C24.2943 287.205 24.5143 287.96 24.9543 288.5C25.3943 289.03 26.0143 289.295 26.8143 289.295ZM35.7216 290.105C35.0116 290.105 34.3916 289.945 33.8616 289.625C33.3316 289.305 32.9216 288.855 32.6316 288.275C32.3416 287.685 32.1966 287.005 32.1966 286.235C32.1966 285.455 32.3416 284.77 32.6316 284.18C32.9216 283.58 33.3366 283.12 33.8766 282.8C34.4166 282.47 35.0416 282.305 35.7516 282.305C36.2616 282.305 36.7466 282.395 37.2066 282.575C37.6766 282.745 38.0616 282.985 38.3616 283.295L38.0016 284.015C37.6116 283.695 37.2366 283.465 36.8766 283.325C36.5266 283.175 36.1616 283.1 35.7816 283.1C34.9716 283.1 34.3316 283.38 33.8616 283.94C33.3916 284.49 33.1566 285.255 33.1566 286.235C33.1566 287.195 33.3866 287.945 33.8466 288.485C34.3166 289.025 34.9616 289.295 35.7816 289.295C36.1616 289.295 36.5266 289.225 36.8766 289.085C37.2366 288.935 37.6116 288.705 38.0016 288.395L38.3616 289.1C38.0416 289.41 37.6416 289.655 37.1616 289.835C36.6916 290.015 36.2116 290.105 35.7216 290.105ZM45.0702 290L40.9302 286.34V290H40.0302V278.96H40.9302V285.98L44.7102 282.485H45.8952L41.9652 286.1L46.3152 290H45.0702ZM47.5009 278.96H48.4009V290H47.5009V278.96ZM50.9139 282.485H51.8139V290H50.9139V282.485ZM51.9939 279.38V280.55H50.7789V279.38H51.9939ZM57.822 282.305C59.632 282.305 60.537 283.275 60.537 285.215V290H59.622V285.275C59.622 284.525 59.467 283.975 59.157 283.625C58.857 283.275 58.382 283.1 57.732 283.1C56.982 283.1 56.377 283.33 55.917 283.79C55.457 284.25 55.227 284.87 55.227 285.65V290H54.327V284.57C54.327 283.79 54.287 283.095 54.207 282.485H55.077L55.197 283.865C55.427 283.355 55.772 282.97 56.232 282.71C56.692 282.44 57.222 282.305 57.822 282.305ZM69.4339 282.485V290.03C69.4339 291.12 69.1639 291.945 68.6239 292.505C68.0839 293.065 67.2889 293.345 66.2389 293.345C65.1189 293.345 64.1439 293.075 63.3139 292.535L63.4939 291.74C63.9839 292.03 64.4339 292.235 64.8439 292.355C65.2539 292.475 65.7239 292.535 66.2539 292.535C67.0039 292.535 67.5689 292.33 67.9489 291.92C68.3389 291.51 68.5339 290.91 68.5339 290.12V288.185C68.3039 288.695 67.9639 289.09 67.5139 289.37C67.0639 289.64 66.5239 289.775 65.8939 289.775C65.2339 289.775 64.6489 289.62 64.1389 289.31C63.6289 288.99 63.2289 288.55 62.9389 287.99C62.6589 287.42 62.5189 286.77 62.5189 286.04C62.5189 285.3 62.6589 284.65 62.9389 284.09C63.2289 283.52 63.6289 283.08 64.1389 282.77C64.6489 282.46 65.2339 282.305 65.8939 282.305C66.5239 282.305 67.0589 282.435 67.4989 282.695C67.9489 282.955 68.2889 283.335 68.5189 283.835V282.485H69.4339ZM66.0139 288.95C66.7939 288.95 67.4039 288.69 67.8439 288.17C68.2939 287.65 68.5189 286.94 68.5189 286.04C68.5189 285.13 68.2939 284.415 67.8439 283.895C67.4039 283.365 66.7939 283.1 66.0139 283.1C65.2239 283.1 64.6039 283.365 64.1539 283.895C63.7039 284.415 63.4789 285.13 63.4789 286.04C63.4789 286.95 63.7039 287.665 64.1539 288.185C64.6039 288.695 65.2239 288.95 66.0139 288.95ZM78.788 290.105C78.078 290.105 77.458 289.945 76.928 289.625C76.398 289.305 75.988 288.855 75.698 288.275C75.408 287.685 75.263 287.005 75.263 286.235C75.263 285.455 75.408 284.77 75.698 284.18C75.988 283.58 76.403 283.12 76.943 282.8C77.483 282.47 78.108 282.305 78.818 282.305C79.328 282.305 79.813 282.395 80.273 282.575C80.743 282.745 81.128 282.985 81.428 283.295L81.068 284.015C80.678 283.695 80.303 283.465 79.943 283.325C79.593 283.175 79.228 283.1 78.848 283.1C78.038 283.1 77.398 283.38 76.928 283.94C76.458 284.49 76.223 285.255 76.223 286.235C76.223 287.195 76.453 287.945 76.913 288.485C77.383 289.025 78.028 289.295 78.848 289.295C79.228 289.295 79.593 289.225 79.943 289.085C80.303 288.935 80.678 288.705 81.068 288.395L81.428 289.1C81.108 289.41 80.708 289.655 80.228 289.835C79.758 290.015 79.278 290.105 78.788 290.105ZM83.0966 278.96H83.9966V290H83.0966V278.96ZM86.5096 282.485H87.4096V290H86.5096V282.485ZM87.5896 279.38V280.55H86.3746V279.38H87.5896ZM98.0227 282.305C99.6827 282.305 100.513 283.275 100.513 285.215V290H99.5977V285.275C99.5977 284.515 99.4627 283.965 99.1927 283.625C98.9227 283.275 98.4927 283.1 97.9027 283.1C97.2127 283.1 96.6677 283.33 96.2677 283.79C95.8777 284.25 95.6827 284.875 95.6827 285.665V290H94.7677V285.275C94.7677 284.515 94.6277 283.965 94.3477 283.625C94.0777 283.275 93.6477 283.1 93.0577 283.1C92.3777 283.1 91.8327 283.33 91.4227 283.79C91.0227 284.25 90.8227 284.875 90.8227 285.665V290H89.9227V284.57C89.9227 283.79 89.8827 283.095 89.8027 282.485H90.6727L90.7927 283.835C91.0027 283.335 91.3127 282.955 91.7227 282.695C92.1427 282.435 92.6277 282.305 93.1777 282.305C94.3877 282.305 95.1627 282.795 95.5027 283.775C95.7127 283.315 96.0377 282.955 96.4777 282.695C96.9277 282.435 97.4427 282.305 98.0227 282.305ZM109.335 282.485V290H108.42V288.56C108.2 289.06 107.865 289.445 107.415 289.715C106.975 289.975 106.445 290.105 105.825 290.105C105.155 290.105 104.565 289.95 104.055 289.64C103.555 289.32 103.165 288.87 102.885 288.29C102.615 287.7 102.48 287.015 102.48 286.235C102.48 285.455 102.62 284.77 102.9 284.18C103.18 283.58 103.57 283.12 104.07 282.8C104.58 282.47 105.165 282.305 105.825 282.305C106.435 282.305 106.96 282.435 107.4 282.695C107.85 282.955 108.19 283.335 108.42 283.835V282.485H109.335ZM105.96 289.295C106.74 289.295 107.345 289.025 107.775 288.485C108.205 287.945 108.42 287.185 108.42 286.205C108.42 285.215 108.205 284.45 107.775 283.91C107.345 283.37 106.735 283.1 105.945 283.1C105.155 283.1 104.54 283.38 104.1 283.94C103.66 284.49 103.44 285.255 103.44 286.235C103.44 287.205 103.66 287.96 104.1 288.5C104.54 289.03 105.16 289.295 105.96 289.295ZM113.097 283.22V287.69C113.097 288.29 113.212 288.705 113.442 288.935C113.672 289.165 114.012 289.28 114.462 289.28C114.742 289.28 115.012 289.235 115.272 289.145V289.97C114.952 290.05 114.627 290.09 114.297 290.09C113.637 290.09 113.117 289.905 112.737 289.535C112.367 289.165 112.182 288.61 112.182 287.87V283.22H110.697V282.485H112.182V280.49L113.097 280.145V282.485H115.317V283.22H113.097ZM117.356 286.13V286.175C117.356 287.185 117.586 287.96 118.046 288.5C118.516 289.03 119.196 289.295 120.086 289.295C120.986 289.295 121.811 288.985 122.561 288.365L122.921 289.085C122.591 289.395 122.171 289.645 121.661 289.835C121.151 290.015 120.626 290.105 120.086 290.105C118.946 290.105 118.046 289.76 117.386 289.07C116.726 288.38 116.396 287.43 116.396 286.22C116.396 285.45 116.541 284.77 116.831 284.18C117.131 283.58 117.546 283.12 118.076 282.8C118.606 282.47 119.216 282.305 119.906 282.305C120.896 282.305 121.666 282.625 122.216 283.265C122.776 283.905 123.056 284.795 123.056 285.935V286.13H117.356ZM119.906 283.055C119.216 283.055 118.656 283.265 118.226 283.685C117.796 284.095 117.526 284.675 117.416 285.425H122.186C122.126 284.655 121.901 284.07 121.511 283.67C121.121 283.26 120.586 283.055 119.906 283.055ZM131.889 290.105C131.179 290.105 130.559 289.945 130.029 289.625C129.499 289.305 129.089 288.855 128.799 288.275C128.509 287.685 128.364 287.005 128.364 286.235C128.364 285.455 128.509 284.77 128.799 284.18C129.089 283.58 129.504 283.12 130.044 282.8C130.584 282.47 131.209 282.305 131.919 282.305C132.429 282.305 132.914 282.395 133.374 282.575C133.844 282.745 134.229 282.985 134.529 283.295L134.169 284.015C133.779 283.695 133.404 283.465 133.044 283.325C132.694 283.175 132.329 283.1 131.949 283.1C131.139 283.1 130.499 283.38 130.029 283.94C129.559 284.49 129.324 285.255 129.324 286.235C129.324 287.195 129.554 287.945 130.014 288.485C130.484 289.025 131.129 289.295 131.949 289.295C132.329 289.295 132.694 289.225 133.044 289.085C133.404 288.935 133.779 288.705 134.169 288.395L134.529 289.1C134.209 289.41 133.809 289.655 133.329 289.835C132.859 290.015 132.379 290.105 131.889 290.105ZM139.692 282.305C141.502 282.305 142.407 283.275 142.407 285.215V290H141.492V285.275C141.492 284.525 141.337 283.975 141.027 283.625C140.727 283.275 140.252 283.1 139.602 283.1C138.852 283.1 138.247 283.33 137.787 283.79C137.327 284.25 137.097 284.87 137.097 285.65V290H136.197V278.96H137.097V283.79C137.337 283.3 137.682 282.93 138.132 282.68C138.582 282.43 139.102 282.305 139.692 282.305ZM151.244 282.485V290H150.329V288.56C150.109 289.06 149.774 289.445 149.324 289.715C148.884 289.975 148.354 290.105 147.734 290.105C147.064 290.105 146.474 289.95 145.964 289.64C145.464 289.32 145.074 288.87 144.794 288.29C144.524 287.7 144.389 287.015 144.389 286.235C144.389 285.455 144.529 284.77 144.809 284.18C145.089 283.58 145.479 283.12 145.979 282.8C146.489 282.47 147.074 282.305 147.734 282.305C148.344 282.305 148.869 282.435 149.309 282.695C149.759 282.955 150.099 283.335 150.329 283.835V282.485H151.244ZM147.869 289.295C148.649 289.295 149.254 289.025 149.684 288.485C150.114 287.945 150.329 287.185 150.329 286.205C150.329 285.215 150.114 284.45 149.684 283.91C149.254 283.37 148.644 283.1 147.854 283.1C147.064 283.1 146.449 283.38 146.009 283.94C145.569 284.49 145.349 285.255 145.349 286.235C145.349 287.205 145.569 287.96 146.009 288.5C146.449 289.03 147.069 289.295 147.869 289.295ZM157.226 282.305C159.036 282.305 159.941 283.275 159.941 285.215V290H159.026V285.275C159.026 284.525 158.871 283.975 158.561 283.625C158.261 283.275 157.786 283.1 157.136 283.1C156.386 283.1 155.781 283.33 155.321 283.79C154.861 284.25 154.631 284.87 154.631 285.65V290H153.731V284.57C153.731 283.79 153.691 283.095 153.611 282.485H154.481L154.601 283.865C154.831 283.355 155.176 282.97 155.636 282.71C156.096 282.44 156.626 282.305 157.226 282.305ZM168.838 282.485V290.03C168.838 291.12 168.568 291.945 168.028 292.505C167.488 293.065 166.693 293.345 165.643 293.345C164.523 293.345 163.548 293.075 162.718 292.535L162.898 291.74C163.388 292.03 163.838 292.235 164.248 292.355C164.658 292.475 165.128 292.535 165.658 292.535C166.408 292.535 166.973 292.33 167.353 291.92C167.743 291.51 167.938 290.91 167.938 290.12V288.185C167.708 288.695 167.368 289.09 166.918 289.37C166.468 289.64 165.928 289.775 165.298 289.775C164.638 289.775 164.053 289.62 163.543 289.31C163.033 288.99 162.633 288.55 162.343 287.99C162.063 287.42 161.923 286.77 161.923 286.04C161.923 285.3 162.063 284.65 162.343 284.09C162.633 283.52 163.033 283.08 163.543 282.77C164.053 282.46 164.638 282.305 165.298 282.305C165.928 282.305 166.463 282.435 166.903 282.695C167.353 282.955 167.693 283.335 167.923 283.835V282.485H168.838ZM165.418 288.95C166.198 288.95 166.808 288.69 167.248 288.17C167.698 287.65 167.923 286.94 167.923 286.04C167.923 285.13 167.698 284.415 167.248 283.895C166.808 283.365 166.198 283.1 165.418 283.1C164.628 283.1 164.008 283.365 163.558 283.895C163.108 284.415 162.883 285.13 162.883 286.04C162.883 286.95 163.108 287.665 163.558 288.185C164.008 288.695 164.628 288.95 165.418 288.95ZM171.804 286.13V286.175C171.804 287.185 172.034 287.96 172.494 288.5C172.964 289.03 173.644 289.295 174.534 289.295C175.434 289.295 176.259 288.985 177.009 288.365L177.369 289.085C177.039 289.395 176.619 289.645 176.109 289.835C175.599 290.015 175.074 290.105 174.534 290.105C173.394 290.105 172.494 289.76 171.834 289.07C171.174 288.38 170.844 287.43 170.844 286.22C170.844 285.45 170.989 284.77 171.279 284.18C171.579 283.58 171.994 283.12 172.524 282.8C173.054 282.47 173.664 282.305 174.354 282.305C175.344 282.305 176.114 282.625 176.664 283.265C177.224 283.905 177.504 284.795 177.504 285.935V286.13H171.804ZM174.354 283.055C173.664 283.055 173.104 283.265 172.674 283.685C172.244 284.095 171.974 284.675 171.864 285.425H176.634C176.574 284.655 176.349 284.07 175.959 283.67C175.569 283.26 175.034 283.055 174.354 283.055ZM68.7212 311.73C68.1612 310.62 67.7512 309.515 67.4912 308.415C67.2312 307.315 67.1012 306.18 67.1012 305.01C67.1012 303.86 67.2312 302.735 67.4912 301.635C67.7512 300.535 68.1562 299.43 68.7062 298.32H69.5162C68.9862 299.54 68.6062 300.69 68.3762 301.77C68.1562 302.85 68.0462 303.93 68.0462 305.01C68.0462 306.09 68.1562 307.175 68.3762 308.265C68.6062 309.355 68.9862 310.51 69.5162 311.73H68.7212ZM74.7033 309.12C73.8633 309.12 73.1183 309.01 72.4683 308.79C71.8283 308.56 71.2583 308.205 70.7583 307.725L71.1483 306.99C71.6783 307.46 72.2133 307.795 72.7533 307.995C73.3033 308.195 73.9533 308.295 74.7033 308.295C75.6033 308.295 76.3033 308.11 76.8033 307.74C77.3033 307.37 77.5533 306.85 77.5533 306.18C77.5533 305.79 77.4283 305.475 77.1783 305.235C76.9383 304.985 76.6283 304.79 76.2483 304.65C75.8783 304.51 75.3833 304.37 74.7633 304.23C73.9433 304.05 73.2733 303.865 72.7533 303.675C72.2433 303.475 71.8133 303.18 71.4633 302.79C71.1133 302.4 70.9383 301.88 70.9383 301.23C70.9383 300.63 71.0933 300.1 71.4033 299.64C71.7133 299.18 72.1533 298.825 72.7233 298.575C73.3033 298.325 73.9733 298.2 74.7333 298.2C75.4633 298.2 76.1383 298.32 76.7583 298.56C77.3783 298.79 77.9133 299.135 78.3633 299.595L77.9733 300.33C77.4733 299.88 76.9633 299.55 76.4433 299.34C75.9233 299.13 75.3533 299.025 74.7333 299.025C73.8333 299.025 73.1283 299.22 72.6183 299.61C72.1183 300 71.8683 300.535 71.8683 301.215C71.8683 301.805 72.0883 302.245 72.5283 302.535C72.9683 302.825 73.6133 303.07 74.4633 303.27L74.8983 303.375C75.6983 303.565 76.3333 303.75 76.8033 303.93C77.2733 304.11 77.6733 304.38 78.0033 304.74C78.3333 305.1 78.4983 305.58 78.4983 306.18C78.4983 306.76 78.3433 307.275 78.0333 307.725C77.7233 308.165 77.2783 308.51 76.6983 308.76C76.1283 309 75.4633 309.12 74.7033 309.12ZM80.5875 298.32H84.0225C85.7225 298.32 87.0325 298.78 87.9525 299.7C88.8725 300.62 89.3325 301.935 89.3325 303.645C89.3325 305.355 88.8675 306.675 87.9375 307.605C87.0175 308.535 85.7125 309 84.0225 309H80.5875V298.32ZM83.9775 308.19C85.4275 308.19 86.5175 307.81 87.2475 307.05C87.9775 306.28 88.3425 305.145 88.3425 303.645C88.3425 300.635 86.8875 299.13 83.9775 299.13H81.5175V308.19H83.9775ZM99.9264 303.525V308.4C99.5364 308.61 99.0014 308.785 98.3214 308.925C97.6414 309.055 96.9564 309.12 96.2664 309.12C95.2264 309.12 94.3314 308.905 93.5814 308.475C92.8314 308.035 92.2564 307.405 91.8564 306.585C91.4664 305.765 91.2714 304.785 91.2714 303.645C91.2714 302.515 91.4664 301.54 91.8564 300.72C92.2564 299.9 92.8264 299.275 93.5664 298.845C94.3064 298.415 95.1814 298.2 96.1914 298.2C97.7014 298.2 98.9114 298.665 99.8214 299.595L99.4314 300.33C98.9214 299.87 98.4064 299.54 97.8864 299.34C97.3764 299.13 96.8064 299.025 96.1764 299.025C94.9164 299.025 93.9414 299.425 93.2514 300.225C92.5714 301.025 92.2314 302.165 92.2314 303.645C92.2314 305.155 92.5764 306.31 93.2664 307.11C93.9664 307.91 94.9714 308.31 96.2814 308.31C97.2914 308.31 98.2264 308.145 99.0864 307.815V304.32H96.2664V303.525H99.9264ZM112.683 308.19V309H107.028V308.19H109.398V299.55L107.193 300.975V300.03L109.803 298.32H110.328V308.19H112.683ZM119.878 303.51C120.508 303.69 120.988 304.005 121.318 304.455C121.648 304.895 121.813 305.45 121.813 306.12C121.813 307.04 121.508 307.77 120.898 308.31C120.298 308.84 119.478 309.105 118.438 309.105C117.758 309.105 117.108 308.985 116.488 308.745C115.868 308.505 115.338 308.17 114.898 307.74L115.288 307.005C115.778 307.435 116.278 307.76 116.788 307.98C117.308 308.19 117.858 308.295 118.438 308.295C119.218 308.295 119.818 308.11 120.238 307.74C120.668 307.36 120.883 306.82 120.883 306.12C120.883 304.7 120.003 303.99 118.243 303.99H117.103V303.165H118.018C118.858 303.165 119.503 302.975 119.953 302.595C120.413 302.205 120.643 301.65 120.643 300.93C120.643 300.32 120.458 299.85 120.088 299.52C119.718 299.18 119.198 299.01 118.528 299.01C117.478 299.01 116.453 299.44 115.453 300.3L115.063 299.565C115.493 299.135 116.013 298.8 116.623 298.56C117.243 298.32 117.883 298.2 118.543 298.2C119.473 298.2 120.213 298.445 120.763 298.935C121.313 299.415 121.588 300.065 121.588 300.885C121.588 301.505 121.433 302.05 121.123 302.52C120.823 302.98 120.408 303.31 119.878 303.51ZM123.502 311.73C124.022 310.51 124.392 309.355 124.612 308.265C124.842 307.165 124.957 306.08 124.957 305.01C124.957 303.93 124.842 302.85 124.612 301.77C124.392 300.69 124.017 299.54 123.487 298.32H124.297C124.847 299.43 125.252 300.535 125.512 301.635C125.772 302.735 125.902 303.86 125.902 305.01C125.902 306.18 125.772 307.315 125.512 308.415C125.252 309.515 124.842 310.62 124.282 311.73H123.502Z" fill="#1F242C"/>
</svg>
