<svg width="174" height="105" viewBox="0 0 174 105" fill="none" xmlns="http://www.w3.org/2000/svg">
<path d="M45.8513 42.7505H42.8795V75.7633H45.8513V42.7505Z" fill="#006838"/>
<path d="M35.6368 74.2696V77.257H53.0861V74.2696H35.6368Z" fill="#006838"/>
<path d="M80.889 75.332L78.4416 77.0214L45.8712 29.3632L49.427 29.2913L80.889 75.332Z" fill="#006838"/>
<path d="M70.1302 77.257L66.5624 77.3049L24 15.0214H27.6035L70.1302 77.257Z" fill="#006838"/>
<path d="M140.996 46.1652C140.996 47.1476 140.951 48.1155 140.861 49.0687C139.387 64.7164 126.113 76.7578 109.943 77.1492C102.224 77.3369 91.4134 72.756 85.6605 65.7828H89.0653C92.4463 69.2015 101.954 74.7808 109.872 74.7808C124.496 74.7808 136.574 63.1988 138.04 49.0806H108.398V46.1771L140.996 46.1652Z" fill="#F7941D"/>
<path d="M123.042 17.9928V21.116C118.896 18.8933 114.268 17.734 109.57 17.7412C93.96 17.7412 81.3021 30.2858 81.3021 45.7538C81.3131 51.4177 83.0642 56.9399 86.316 61.5653H83.2727C82.8039 61.2418 81.6359 59.3727 81.2862 58.566V77.3049H78.4734V45.7538C78.467 41.3276 79.4272 36.954 81.2862 32.9416C84.8539 25.3954 91.2562 19.5818 99.0861 16.7787C106.916 13.9756 115.532 14.4123 123.042 17.9928Z" fill="#F7941D"/>
<path d="M47.6789 3.45929V6.76617C47.524 6.76617 47.3611 6.76617 47.2022 6.76617C47.0432 6.76617 46.9042 6.76617 46.7532 6.76617V3.45929C46.7543 3.33711 46.8033 3.2203 46.8896 3.13428C46.9759 3.04826 47.0925 3 47.2141 3C47.336 2.99998 47.453 3.04811 47.54 3.13402C47.6269 3.21994 47.6768 3.33675 47.6789 3.45929Z" fill="#F7941D"/>
<path d="M47.1982 23.2566C47.3571 23.2566 47.52 23.2566 47.6749 23.2566V26.4756C47.6728 26.5982 47.6229 26.715 47.536 26.8009C47.449 26.8868 47.332 26.935 47.2101 26.9349C47.0885 26.9349 46.9719 26.8867 46.8856 26.8007C46.7993 26.7146 46.7503 26.5978 46.7492 26.4756V23.2566C46.8843 23.2486 47.0472 23.2566 47.1982 23.2566Z" fill="#F7941D"/>
<path d="M41.8307 21.3516L39.5065 23.688C39.4206 23.7743 39.3042 23.8228 39.1827 23.8228C39.0613 23.8228 38.9448 23.7743 38.8589 23.688C38.773 23.6016 38.7248 23.4846 38.7248 23.3625C38.7248 23.2404 38.773 23.1233 38.8589 23.037L41.1672 20.7166C41.3715 20.9454 41.5933 21.1577 41.8307 21.3516Z" fill="#F7941D"/>
<path d="M56.2844 6.63438C56.2845 6.69524 56.2727 6.75553 56.2495 6.81175C56.2263 6.86797 56.1923 6.919 56.1493 6.96187L53.8648 9.25831C53.6643 9.02277 53.4521 8.7975 53.2291 8.58336L55.4977 6.29091C55.5851 6.20599 55.7019 6.15852 55.8235 6.15852C55.9451 6.15852 56.0619 6.20599 56.1493 6.29091C56.2363 6.38383 56.2847 6.50674 56.2844 6.63438Z" fill="#F7941D"/>
<path d="M40.0309 6.33083L42.0174 8.51545C41.7719 8.70276 41.5396 8.90694 41.3222 9.1265L39.3357 6.95387C39.274 6.88831 39.2329 6.80593 39.2175 6.71703C39.2021 6.62814 39.2132 6.53665 39.2492 6.454C39.2852 6.37136 39.3446 6.3012 39.4201 6.25231C39.4955 6.20341 39.5836 6.17794 39.6734 6.17907C39.7403 6.17723 39.8068 6.18983 39.8685 6.21601C39.9302 6.24218 39.9856 6.28134 40.0309 6.33083Z" fill="#F7941D"/>
<path d="M55.5811 24.0474C55.4903 24.1284 55.3713 24.1701 55.25 24.1633C55.1287 24.1566 55.015 24.102 54.9336 24.0115L52.5498 21.3676C52.7888 21.1713 53.0132 20.9577 53.2212 20.7285L55.605 23.3884C55.6885 23.4791 55.7329 23.5994 55.7284 23.7229C55.724 23.8464 55.671 23.9631 55.5811 24.0474Z" fill="#F7941D"/>
<path d="M39.0139 14.4982C38.996 14.6653 38.9881 14.8334 38.99 15.0014C38.99 15.1452 38.99 15.289 38.99 15.4248H35.7997C35.7392 15.4248 35.6793 15.4128 35.6234 15.3895C35.5674 15.3662 35.5166 15.3321 35.4738 15.2891C35.4311 15.2461 35.3971 15.195 35.3739 15.1388C35.3508 15.0826 35.3389 15.0223 35.3389 14.9615C35.3389 14.9006 35.3508 14.8404 35.3739 14.7842C35.3971 14.728 35.4311 14.6769 35.4738 14.6339C35.5166 14.5909 35.5674 14.5567 35.6234 14.5335C35.6793 14.5102 35.7392 14.4982 35.7997 14.4982H39.0139Z" fill="#F7941D"/>
<path d="M58.8032 14.9575C58.8032 15.0183 58.7913 15.0786 58.7681 15.1348C58.745 15.191 58.711 15.242 58.6682 15.2851C58.6254 15.3281 58.5746 15.3622 58.5187 15.3855C58.4628 15.4088 58.4029 15.4208 58.3424 15.4208H55.0527C55.0527 15.281 55.0726 15.1452 55.0726 15.0214C55.0726 14.8976 55.0726 14.6859 55.0488 14.5182H58.3424C58.4606 14.518 58.5743 14.5635 58.6601 14.6453C58.7459 14.727 58.7971 14.8388 58.8032 14.9575Z" fill="#F7941D"/>
<path d="M54.433 14.4662C54.3384 12.9678 53.7831 11.5359 52.8438 10.3686C52.6317 10.1156 52.4049 9.87555 52.1644 9.6497C50.9485 8.50871 49.3782 7.82452 47.7186 7.71269C47.5558 7.71269 47.3849 7.71269 47.2141 7.71269C47.0432 7.71269 46.8962 7.71269 46.7373 7.71269C45.3015 7.79999 43.9252 8.32055 42.7882 9.20638C42.5263 9.40486 42.2793 9.62244 42.0492 9.85737C40.8257 11.091 40.0876 12.7281 39.9714 14.4662C39.9534 14.644 39.9454 14.8227 39.9475 15.0014C39.9475 15.1532 39.9475 15.3049 39.9475 15.4527C40.0449 17.1416 40.7281 18.7428 41.8784 19.9777C42.0986 20.2199 42.3363 20.4455 42.5895 20.6527C43.7598 21.6248 45.2062 22.1994 46.7214 22.2941C46.8803 22.2941 47.0393 22.2941 47.1982 22.2941C47.3571 22.2941 47.5399 22.2941 47.7027 22.2941C49.1991 22.1922 50.6267 21.624 51.787 20.6686C52.0414 20.4601 52.2805 20.2332 52.5021 19.9897C53.6589 18.7527 54.343 17.1441 54.433 15.4487C54.433 15.3009 54.4528 15.1532 54.4528 15.0014C54.4528 14.8496 54.4568 14.642 54.433 14.4662ZM51.6996 19.111C51.4808 19.3562 51.2416 19.582 50.9844 19.786C50.0456 20.5488 48.8984 21.007 47.6948 21.1C47.5272 21.1181 47.3588 21.1261 47.1902 21.1239C47.0313 21.1239 46.8645 21.1239 46.7135 21.1239C45.5117 21.03 44.365 20.5781 43.4199 19.8259C43.1618 19.6244 42.9225 19.3999 42.7048 19.155C41.7728 18.144 41.2122 16.8435 41.1156 15.4687C41.1156 15.3209 41.0957 15.1691 41.0957 15.0174C41.0957 14.8656 41.0957 14.6579 41.1195 14.4822C41.2459 13.0389 41.8773 11.6874 42.9016 10.668C43.9258 9.6486 45.2765 9.0274 46.7135 8.91483C46.8645 8.91483 47.0313 8.91483 47.1902 8.91483C47.3492 8.91483 47.5319 8.91483 47.6948 8.93879C49.042 9.04731 50.3133 9.61027 51.3023 10.5363C51.5489 10.7536 51.7726 10.9958 51.9697 11.2592C52.7056 12.1912 53.1519 13.3206 53.253 14.5062C53.2709 14.684 53.2789 14.8626 53.2768 15.0413C53.2782 15.1907 53.2716 15.34 53.257 15.4887C53.1573 16.8362 52.6119 18.1114 51.7075 19.111H51.6996Z" fill="#F7941D"/>
<path d="M52.5657 15.0014C52.5657 15.1372 52.5657 15.265 52.5657 15.4008C52.4802 16.6009 51.9961 17.7374 51.191 18.6278C50.9982 18.8444 50.7868 19.0435 50.5593 19.2229C49.7308 19.8947 48.7201 20.2997 47.659 20.3851C47.5108 20.3932 47.3623 20.3932 47.2141 20.3851C47.071 20.3851 46.928 20.3851 46.7929 20.3851C45.7336 20.3024 44.7226 19.9048 43.8887 19.2428C43.6622 19.0638 43.4509 18.866 43.257 18.6518C42.4374 17.7586 41.9431 16.6126 41.8545 15.4008C41.8545 15.269 41.8545 15.1372 41.8545 15.0014C41.8544 14.844 41.8624 14.6867 41.8784 14.5301C41.9794 13.2908 42.5094 12.1263 43.3762 11.2392C43.5687 11.0389 43.7759 10.8534 43.996 10.6841C44.8061 10.079 45.7705 9.71756 46.777 9.64171C46.9121 9.64171 47.0551 9.64171 47.1982 9.64171C47.3464 9.63357 47.4949 9.63357 47.6431 9.64171C48.8292 9.73682 49.9488 10.2306 50.8215 11.0435C51.0365 11.2369 51.2321 11.4509 51.4055 11.6826C52.0551 12.5042 52.449 13.5004 52.5378 14.5461C52.5546 14.6973 52.5639 14.8493 52.5657 15.0014Z" fill="#F7941D"/>
<path d="M0 98.5609L2.85628 98.1778H3.63233L7.08143 98.5609V99.9482H0V98.5609ZM1.4012 83.9111L2.95328 84.6358L0.032334 84.3977V83H6.10059L15.7365 95.7034V100H13.4515L1.4012 83.9111ZM2.28503 83L4.00958 84.3977V99.9275H2.28503V83ZM10.9078 83H18V84.3873L15.2731 84.7704H14.5293L10.9186 84.3873L10.9078 83ZM13.9796 83H15.715V100L13.9796 98.3331V83Z" fill="#F7941D"/>
<path d="M30.9986 92.7705C31.0089 93.2629 30.9605 93.7546 30.8545 94.2341H20.8148V92.7705H25.5823C26.818 92.7705 27.1372 92.2899 27.1372 91.0775C27.1372 89.2861 26.334 88.4014 25.397 88.4014C24.46 88.4014 23.3376 89.6356 23.3376 93.5679C23.3376 96.8447 24.8924 98.3848 26.8077 98.3848C27.391 98.3868 27.9679 98.2573 28.5005 98.0049C29.033 97.7526 29.509 97.3832 29.8968 96.9211L30.7824 97.8059C30.2739 98.8343 29.4935 99.683 28.5368 100.248C27.5802 100.812 26.4889 101.068 25.397 100.984C21.6694 100.984 19.0025 98.3957 19.0025 93.9938C18.9782 93.067 19.1328 92.1446 19.4567 91.2834C19.7806 90.4222 20.267 89.6402 20.886 88.9856C21.5051 88.331 22.2437 87.8175 23.0566 87.4766C23.8695 87.1357 24.7395 86.9746 25.6132 87.0032C29.0834 87.0142 30.9986 89.4936 30.9986 92.7705Z" fill="#F7941D"/>
<path d="M44.983 92.7759C44.9933 93.268 44.9448 93.7594 44.8388 94.2386H34.7952V92.7759H39.5749C40.8007 92.7759 41.1201 92.2957 41.1201 91.0841C41.1201 89.294 40.3166 88.4098 39.3895 88.4098C38.4624 88.4098 37.3293 89.6432 37.3293 93.5727C37.3293 96.8473 38.8847 98.3864 40.8007 98.3864C41.3842 98.3883 41.9614 98.2589 42.4942 98.0068C43.0269 97.7546 43.5031 97.3855 43.8911 96.9237L44.777 97.8078C44.2711 98.8357 43.4924 99.6841 42.5369 100.249C41.5814 100.813 40.4908 101.069 39.3998 100.984C35.6605 100.984 33.0028 98.3973 33.0028 93.9984C32.977 93.0718 33.1306 92.1494 33.4541 91.288C33.7776 90.4266 34.2641 89.6446 34.8837 88.9901C35.5033 88.3356 36.2429 87.8225 37.0568 87.4824C37.8707 87.1423 38.7417 86.9824 39.6161 87.0127C40.34 86.9597 41.0661 87.0732 41.7448 87.3452C42.4235 87.6172 43.0387 88.0413 43.5483 88.5886C44.058 89.1359 44.45 89.7934 44.6976 90.5161C44.9452 91.2388 45.0426 92.0097 44.983 92.7759Z" fill="#F7941D"/>
<path d="M57.7433 87.0108V88.086L50.2419 100V98.7312H56.7163L54.6512 99.9785L55.7674 95.4946H58L57.7209 99.9785H46V98.9032L53.747 87V88.2258H47.6186L49.4605 87L48.4 91.2043L46.1674 91.0968L46.3795 87L57.7433 87.0108Z" fill="#F7941D"/>
<path d="M71.9985 92.7705C72.0097 93.2629 71.957 93.7546 71.8418 94.2341H60.928V92.7705H66.1554C67.4987 92.7705 67.8457 92.2899 67.8457 91.0775C67.8457 89.2861 66.9726 88.4014 65.954 88.4014C64.9353 88.4014 63.7152 89.6356 63.7152 93.5679C63.7152 96.8447 65.3943 98.3848 67.4875 98.3848C68.1215 98.3868 68.7487 98.2573 69.3276 98.0049C69.9065 97.7526 70.424 97.3832 70.8456 96.9211L71.8082 97.8059C71.2555 98.8343 70.4071 99.683 69.3672 100.248C68.3272 100.812 67.141 101.068 65.954 100.984C61.8907 100.984 59.0027 98.3957 59.0027 93.9938C58.9763 93.067 59.1443 92.1446 59.4964 91.2834C59.8485 90.4222 60.3773 89.6402 61.0502 88.9856C61.7232 88.331 62.5261 87.8175 63.4098 87.4766C64.2935 87.1357 65.2393 86.9746 66.189 87.0032C69.9165 87.0142 71.9985 89.4936 71.9985 92.7705Z" fill="#F7941D"/>
<path d="M74.7313 94.5346V93.0088C74.7313 91.5772 74.7313 91.0442 74.6447 90.0097L73 89.7693V88.7243L78.3237 87L78.7782 87.2717L79.0271 90.4695V94.5137C79.0271 96.123 79.027 98.8087 79.1028 99.9791H74.6447C74.6988 98.7982 74.7313 96.1439 74.7313 94.5346ZM73.2164 98.7878L75.7917 98.2653H78.6267L81.202 98.7878V100H73.2164V98.7878ZM77.0361 91.086H79.0595L78.6916 91.7966C79.1677 88.6093 81.0505 87.0209 82.652 87.0209C83.2226 86.9881 83.7845 87.1682 84.2215 87.5242C84.6585 87.8801 84.9372 88.3845 85 88.9333C84.9459 90.2918 84.1668 91.0233 83.0848 91.0233C82.6597 91.0053 82.2459 90.885 81.8812 90.6733C81.5165 90.4616 81.2123 90.1652 80.9964 89.8111L80.2173 88.8183L81.2994 89.1945C80.1326 90.1122 79.3267 91.3883 79.0162 92.8103L77.0361 92.6222V91.086Z" fill="#F7941D"/>
<path d="M101.54 99.4043C99.6769 100.498 97.5491 101.05 95.3936 100.996C89.8032 100.996 86 97.4388 86 91.4653C86 85.7115 89.5634 82.0001 95.7205 82.0001C97.5498 81.9927 99.3543 82.4256 100.984 83.2629L101.093 87.5233H98.9788L98.0308 83.1311L99.9051 83.5264V84.9649C98.8941 84.0576 97.597 83.5403 96.2436 83.5044C93.3122 83.5044 90.7949 85.9751 90.7949 91.4214C90.7949 96.8678 93.1923 99.4043 96.1891 99.4043C97.2864 99.3783 98.3546 99.0436 99.2731 98.438L97.2026 100.195V98.1306C97.2026 95.9345 97.2026 93.8371 97.1263 91.5971H101.616C101.562 93.7932 101.529 95.9893 101.529 98.1855L101.54 99.4043ZM94.7288 93.1015V91.63H103V93.1015L99.818 93.5297H98.0744L94.7288 93.1015Z" fill="#006838"/>
<path d="M105.731 94.5346V93.0088C105.731 91.5772 105.731 91.0442 105.645 90.0097L104 89.7693V88.7243L109.313 87L109.778 87.2717L110.027 90.4695V94.5137C110.027 96.123 110.027 98.8087 110.103 99.9791H105.623C105.731 98.7982 105.731 96.1439 105.731 94.5346ZM104.216 98.7878L106.792 98.2653H109.627L112.202 98.7878V100H104.216V98.7878ZM108.036 91.086H110.06L109.692 91.7966C110.168 88.6093 112.051 87.0209 113.652 87.0209C114.223 86.9881 114.784 87.1682 115.221 87.5242C115.658 87.8801 115.937 88.3845 116 88.9333C115.935 90.2918 115.156 91.0233 114.085 91.0233C113.659 91.0062 113.245 90.8863 112.88 90.6745C112.516 90.4627 112.212 90.1658 111.996 89.8111L111.217 88.8183L112.299 89.1945C111.133 90.1139 110.324 91.3888 110.005 92.8103L108.036 92.6222V91.086Z" fill="#006838"/>
<path d="M128.983 92.7746C128.993 93.2668 128.945 93.7583 128.839 94.2375H118.769V92.7746H123.592C124.821 92.7746 125.141 92.2943 125.141 91.0825C125.141 89.2921 124.336 88.4079 123.406 88.4079C122.477 88.4079 121.341 89.6415 121.341 93.5716C121.341 96.8467 122.9 98.386 124.821 98.386C125.406 98.3879 125.985 98.2585 126.519 98.0063C127.053 97.7541 127.53 97.3849 127.919 96.9231L128.808 97.8074C128.3 98.8353 127.52 99.6839 126.562 100.248C125.604 100.813 124.51 101.069 123.416 100.984C119.667 100.984 117.003 98.3969 117.003 93.9973C116.977 93.0705 117.131 92.148 117.455 91.2865C117.78 90.425 118.267 89.6429 118.889 88.9883C119.51 88.3337 120.251 87.8205 121.067 87.4803C121.883 87.1402 122.757 86.9803 123.633 87.0105C124.357 86.9625 125.081 87.0796 125.758 87.3538C126.434 87.6281 127.047 88.053 127.555 88.5998C128.062 89.1466 128.452 89.8025 128.699 90.5229C128.945 91.2432 129.042 92.0112 128.983 92.7746Z" fill="#006838"/>
<path d="M142.999 92.7709C143.01 93.2633 142.957 93.7551 142.842 94.2346H131.938V92.7709H137.161C138.503 92.7709 138.849 92.2903 138.849 91.0779C138.849 89.2865 137.966 88.4017 136.959 88.4017C135.953 88.4017 134.723 89.636 134.723 93.5683C134.723 96.8451 136.4 98.3853 138.48 98.3853C139.114 98.3872 139.74 98.2577 140.319 98.0054C140.897 97.7531 141.414 97.3836 141.835 96.9216L142.797 97.8063C142.244 98.8339 141.396 99.6817 140.357 100.246C139.319 100.811 138.134 101.067 136.948 100.985C132.888 100.985 130.003 98.3962 130.003 93.9942C129.975 93.067 130.142 92.1439 130.493 91.2819C130.844 90.42 131.372 89.6374 132.045 88.9824C132.718 88.3275 133.521 87.814 134.404 87.4737C135.288 87.1334 136.234 86.9734 137.183 87.0036C140.918 87.0145 142.999 89.494 142.999 92.7709Z" fill="#006838"/>
<path d="M145.589 100C145.641 98.8296 145.672 96.1439 145.672 94.5346V93.0298C145.672 91.5981 145.672 91.0442 145.589 90.0097L144 89.7693V88.7243L149.132 87L149.582 87.2717L149.822 90.1664V94.5137C149.822 96.123 149.822 98.8087 149.895 99.9791L145.589 100ZM151.087 98.7878V100H144.23V98.7982L146.645 98.2757H148.631L151.087 98.7878ZM157.662 91.4727V94.5137C157.662 96.1752 157.662 98.8087 157.746 99.9791H153.439C153.439 98.8087 153.512 96.1752 153.512 94.5137V91.7966C153.512 90.1246 153.094 89.5394 152.059 89.5394C151.423 89.6254 150.81 89.838 150.257 90.1646C149.704 90.4913 149.222 90.9254 148.84 91.4413H147.951V89.7693H149.77L148.725 90.5008C150.554 87.8569 152.038 87.0209 153.951 87.0209C156.199 87.0209 157.693 88.4944 157.693 91.4831L157.662 91.4727ZM156.45 98.2444L159 98.7669V99.9791H152.122V98.7982L154.484 98.2757L156.45 98.2444Z" fill="#006838"/>
<path d="M173.999 92.7705C174.01 93.2629 173.957 93.7546 173.842 94.2341H162.919V92.7705H168.151C169.495 92.7705 169.842 92.2899 169.842 91.0775C169.842 89.2861 168.968 88.4014 167.949 88.4014C166.929 88.4014 165.708 89.6357 165.708 93.5679C165.708 96.8447 167.4 98.3848 169.484 98.3848C170.118 98.3868 170.746 98.2573 171.325 98.0049C171.905 97.7526 172.423 97.3832 172.845 96.9211L173.808 97.8059C173.255 98.8343 172.406 99.683 171.365 100.248C170.324 100.812 169.137 101.068 167.949 100.984C163.893 100.984 161.003 98.3957 161.003 93.9938C160.975 93.0675 161.142 92.1454 161.493 91.2842C161.844 90.423 162.372 89.6409 163.045 88.9861C163.717 88.3314 164.52 87.8177 165.404 87.4767C166.288 87.1357 167.234 86.9746 168.184 87.0033C171.915 87.0142 173.999 89.4937 173.999 92.7705Z" fill="#006838"/>
</svg>
